<?xml version="1.0" encoding="utf-8" standalone="no"?>
<!DOCTYPE svg PUBLIC "-//W3C//DTD SVG 1.1//EN"
  "http://www.w3.org/Graphics/SVG/1.1/DTD/svg11.dtd">
<svg xmlns:xlink="http://www.w3.org/1999/xlink" width="812.556406pt" height="307.833594pt" viewBox="0 0 812.556406 307.833594" xmlns="http://www.w3.org/2000/svg" version="1.1">
 <metadata>
  <rdf:RDF xmlns:dc="http://purl.org/dc/elements/1.1/" xmlns:cc="http://creativecommons.org/ns#" xmlns:rdf="http://www.w3.org/1999/02/22-rdf-syntax-ns#">
   <cc:Work>
    <dc:type rdf:resource="http://purl.org/dc/dcmitype/StillImage"/>
    <dc:format>image/svg+xml</dc:format>
    <dc:creator>
     <cc:Agent>
      <dc:title>Matplotlib v3.10.6, https://matplotlib.org/</dc:title>
     </cc:Agent>
    </dc:creator>
   </cc:Work>
  </rdf:RDF>
 </metadata>
 <defs>
  <style type="text/css">*{stroke-linejoin: round; stroke-linecap: butt}</style>
 </defs>
 <g id="figure_1">
  <g id="patch_1">
   <path d="M 0 307.833594 
L 812.556406 307.833594 
L 812.556406 0 
L 0 0 
z
" style="fill: #ffffff"/>
  </g>
  <g id="axes_1">
   <g id="patch_2">
    <path d="M 56.036406 256.688594 
L 801.756406 256.688594 
L 801.756406 30.328594 
L 56.036406 30.328594 
z
" style="fill: #ffffff"/>
   </g>
   <g id="matplotlib.axis_1">
    <g id="xtick_1">
     <g id="line2d_1">
      <path d="M 89.93277 256.688594 
L 89.93277 30.328594 
" clip-path="url(#p64043c1c7a)" style="fill: none; stroke: #b0bcc7; stroke-width: 0.9; stroke-linecap: square"/>
     </g>
     <g id="line2d_2">
      <defs>
       <path id="m7b8a0b1d1f" d="M 0 0 
L 0 3.5 
" style="stroke: #33414d; stroke-width: 0.8"/>
      </defs>
      <g>
       <use xlink:href="#m7b8a0b1d1f" x="89.93277" y="256.688594" style="fill: #33414d; stroke: #33414d; stroke-width: 0.8"/>
      </g>
     </g>
     <g id="text_1">
      <!-- 0.5 -->
      <g style="fill: #33414d" transform="translate(80.609332 274.369062) scale(0.15 -0.15)">
       <defs>
        <path id="SourceSans3-Regular-30" d="M 1594 -77 
Q 979 -77 630 476 
Q 282 1030 282 2054 
Q 282 3085 630 3622 
Q 979 4160 1594 4160 
Q 2202 4160 2550 3619 
Q 2899 3078 2899 2054 
Q 2899 1030 2550 476 
Q 2202 -77 1594 -77 
z
M 1594 346 
Q 1830 346 2009 525 
Q 2189 704 2288 1081 
Q 2387 1459 2387 2054 
Q 2387 2656 2288 3027 
Q 2189 3398 2009 3568 
Q 1830 3738 1594 3738 
Q 1350 3738 1171 3568 
Q 992 3398 893 3027 
Q 794 2656 794 2054 
Q 794 1459 893 1081 
Q 992 704 1171 525 
Q 1350 346 1594 346 
z
" transform="scale(0.015625)"/>
        <path id="SourceSans3-Regular-2e" d="M 800 -77 
Q 646 -77 531 35 
Q 416 147 416 320 
Q 416 506 531 618 
Q 646 730 800 730 
Q 960 730 1069 618 
Q 1178 506 1178 320 
Q 1178 147 1069 35 
Q 960 -77 800 -77 
z
" transform="scale(0.015625)"/>
        <path id="SourceSans3-Regular-35" d="M 1498 -77 
Q 1171 -77 921 3 
Q 672 83 486 211 
Q 301 339 160 480 
L 416 826 
Q 602 646 845 502 
Q 1088 358 1446 358 
Q 1696 358 1897 473 
Q 2099 589 2220 797 
Q 2342 1005 2342 1293 
Q 2342 1715 2105 1952 
Q 1869 2189 1472 2189 
Q 1267 2189 1113 2125 
Q 960 2061 774 1939 
L 493 2118 
L 627 4083 
L 2669 4083 
L 2669 3629 
L 1088 3629 
L 979 2419 
Q 1126 2496 1273 2541 
Q 1421 2586 1606 2586 
Q 1958 2586 2246 2451 
Q 2534 2317 2704 2032 
Q 2874 1747 2874 1306 
Q 2874 864 2678 553 
Q 2483 243 2169 83 
Q 1856 -77 1498 -77 
z
" transform="scale(0.015625)"/>
       </defs>
       <use xlink:href="#SourceSans3-Regular-30"/>
       <use xlink:href="#SourceSans3-Regular-2e" transform="translate(49.699997 0)"/>
       <use xlink:href="#SourceSans3-Regular-35" transform="translate(74.599991 0)"/>
      </g>
     </g>
    </g>
    <g id="xtick_2">
     <g id="line2d_3">
      <path d="M 240.583275 256.688594 
L 240.583275 30.328594 
" clip-path="url(#p64043c1c7a)" style="fill: none; stroke: #b0bcc7; stroke-width: 0.9; stroke-linecap: square"/>
     </g>
     <g id="line2d_4">
      <g>
       <use xlink:href="#m7b8a0b1d1f" x="240.583275" y="256.688594" style="fill: #33414d; stroke: #33414d; stroke-width: 0.8"/>
      </g>
     </g>
     <g id="text_2">
      <!-- 0.6 -->
      <g style="fill: #33414d" transform="translate(231.259837 274.369062) scale(0.15 -0.15)">
       <defs>
        <path id="SourceSans3-Regular-36" d="M 1715 -77 
Q 1414 -77 1158 44 
Q 902 166 713 412 
Q 525 659 416 1027 
Q 307 1395 307 1888 
Q 307 2502 435 2934 
Q 563 3366 780 3635 
Q 998 3904 1276 4032 
Q 1555 4160 1862 4160 
Q 2195 4160 2435 4035 
Q 2675 3910 2848 3725 
L 2554 3398 
Q 2432 3546 2253 3632 
Q 2074 3718 1882 3718 
Q 1594 3718 1347 3545 
Q 1101 3373 953 2973 
Q 806 2573 806 1888 
Q 806 1382 912 1036 
Q 1018 691 1222 515 
Q 1427 339 1715 339 
Q 1914 339 2077 451 
Q 2240 563 2333 764 
Q 2426 966 2426 1235 
Q 2426 1498 2342 1693 
Q 2259 1888 2092 1993 
Q 1926 2099 1670 2099 
Q 1472 2099 1238 1968 
Q 1005 1837 794 1523 
L 774 1939 
Q 973 2195 1235 2345 
Q 1498 2496 1760 2496 
Q 2112 2496 2374 2355 
Q 2637 2214 2781 1932 
Q 2925 1651 2925 1235 
Q 2925 845 2758 550 
Q 2592 256 2317 89 
Q 2042 -77 1715 -77 
z
" transform="scale(0.015625)"/>
       </defs>
       <use xlink:href="#SourceSans3-Regular-30"/>
       <use xlink:href="#SourceSans3-Regular-2e" transform="translate(49.699997 0)"/>
       <use xlink:href="#SourceSans3-Regular-36" transform="translate(74.599991 0)"/>
      </g>
     </g>
    </g>
    <g id="xtick_3">
     <g id="line2d_5">
      <path d="M 391.23378 256.688594 
L 391.23378 30.328594 
" clip-path="url(#p64043c1c7a)" style="fill: none; stroke: #b0bcc7; stroke-width: 0.9; stroke-linecap: square"/>
     </g>
     <g id="line2d_6">
      <g>
       <use xlink:href="#m7b8a0b1d1f" x="391.23378" y="256.688594" style="fill: #33414d; stroke: #33414d; stroke-width: 0.8"/>
      </g>
     </g>
     <g id="text_3">
      <!-- 0.7 -->
      <g style="fill: #33414d" transform="translate(381.910342 274.369062) scale(0.15 -0.15)">
       <defs>
        <path id="SourceSans3-Regular-37" d="M 1094 0 
Q 1120 576 1200 1059 
Q 1280 1542 1424 1968 
Q 1568 2394 1789 2800 
Q 2010 3206 2323 3629 
L 282 3629 
L 282 4083 
L 2912 4083 
L 2912 3757 
Q 2547 3296 2307 2870 
Q 2067 2445 1929 2009 
Q 1792 1574 1728 1088 
Q 1664 602 1638 0 
L 1094 0 
z
" transform="scale(0.015625)"/>
       </defs>
       <use xlink:href="#SourceSans3-Regular-30"/>
       <use xlink:href="#SourceSans3-Regular-2e" transform="translate(49.699997 0)"/>
       <use xlink:href="#SourceSans3-Regular-37" transform="translate(74.599991 0)"/>
      </g>
     </g>
    </g>
    <g id="xtick_4">
     <g id="line2d_7">
      <path d="M 541.884285 256.688594 
L 541.884285 30.328594 
" clip-path="url(#p64043c1c7a)" style="fill: none; stroke: #b0bcc7; stroke-width: 0.9; stroke-linecap: square"/>
     </g>
     <g id="line2d_8">
      <g>
       <use xlink:href="#m7b8a0b1d1f" x="541.884285" y="256.688594" style="fill: #33414d; stroke: #33414d; stroke-width: 0.8"/>
      </g>
     </g>
     <g id="text_4">
      <!-- 0.8 -->
      <g style="fill: #33414d" transform="translate(532.560848 274.369062) scale(0.15 -0.15)">
       <defs>
        <path id="SourceSans3-Regular-38" d="M 1600 -77 
Q 1216 -77 912 67 
Q 608 211 435 467 
Q 262 723 262 1043 
Q 262 1312 374 1520 
Q 486 1728 662 1885 
Q 838 2042 1030 2144 
L 1030 2170 
Q 806 2330 633 2560 
Q 461 2790 461 3110 
Q 461 3424 614 3661 
Q 768 3898 1027 4029 
Q 1286 4160 1619 4160 
Q 2150 4160 2460 3856 
Q 2771 3552 2771 3072 
Q 2771 2861 2681 2672 
Q 2592 2483 2464 2332 
Q 2336 2182 2208 2086 
L 2208 2061 
Q 2387 1958 2550 1817 
Q 2714 1677 2816 1481 
Q 2918 1286 2918 1011 
Q 2918 710 2755 464 
Q 2592 218 2294 70 
Q 1997 -77 1600 -77 
z
M 1888 2227 
Q 2099 2413 2208 2617 
Q 2317 2822 2317 3046 
Q 2317 3245 2233 3408 
Q 2150 3571 1990 3670 
Q 1830 3770 1606 3770 
Q 1325 3770 1136 3587 
Q 947 3405 947 3110 
Q 947 2867 1078 2707 
Q 1210 2547 1424 2435 
Q 1638 2323 1888 2227 
z
M 1613 314 
Q 1850 314 2029 403 
Q 2208 493 2310 656 
Q 2413 819 2413 1030 
Q 2413 1293 2259 1459 
Q 2106 1626 1856 1744 
Q 1606 1862 1306 1984 
Q 1062 1824 899 1600 
Q 736 1376 736 1094 
Q 736 870 851 694 
Q 966 518 1164 416 
Q 1363 314 1613 314 
z
" transform="scale(0.015625)"/>
       </defs>
       <use xlink:href="#SourceSans3-Regular-30"/>
       <use xlink:href="#SourceSans3-Regular-2e" transform="translate(49.699997 0)"/>
       <use xlink:href="#SourceSans3-Regular-38" transform="translate(74.599991 0)"/>
      </g>
     </g>
    </g>
    <g id="xtick_5">
     <g id="line2d_9">
      <path d="M 692.53479 256.688594 
L 692.53479 30.328594 
" clip-path="url(#p64043c1c7a)" style="fill: none; stroke: #b0bcc7; stroke-width: 0.9; stroke-linecap: square"/>
     </g>
     <g id="line2d_10">
      <g>
       <use xlink:href="#m7b8a0b1d1f" x="692.53479" y="256.688594" style="fill: #33414d; stroke: #33414d; stroke-width: 0.8"/>
      </g>
     </g>
     <g id="text_5">
      <!-- 0.9 -->
      <g style="fill: #33414d" transform="translate(683.211353 274.369062) scale(0.15 -0.15)">
       <defs>
        <path id="SourceSans3-Regular-39" d="M 1312 -77 
Q 986 -77 742 48 
Q 499 173 326 352 
L 621 685 
Q 749 538 925 448 
Q 1101 358 1293 358 
Q 1587 358 1830 534 
Q 2074 710 2224 1110 
Q 2374 1510 2374 2195 
Q 2374 2701 2265 3043 
Q 2157 3386 1955 3565 
Q 1754 3744 1459 3744 
Q 1261 3744 1101 3632 
Q 941 3520 845 3318 
Q 749 3117 749 2848 
Q 749 2586 835 2390 
Q 922 2195 1088 2089 
Q 1254 1984 1504 1984 
Q 1702 1984 1939 2115 
Q 2176 2246 2381 2560 
L 2400 2144 
Q 2214 1888 1945 1737 
Q 1677 1587 1414 1587 
Q 1062 1587 800 1728 
Q 538 1869 397 2150 
Q 256 2432 256 2848 
Q 256 3238 419 3536 
Q 582 3834 857 3997 
Q 1133 4160 1459 4160 
Q 1760 4160 2019 4038 
Q 2278 3917 2467 3670 
Q 2656 3424 2761 3056 
Q 2867 2688 2867 2195 
Q 2867 1581 2739 1145 
Q 2611 710 2393 441 
Q 2176 173 1897 48 
Q 1619 -77 1312 -77 
z
" transform="scale(0.015625)"/>
       </defs>
       <use xlink:href="#SourceSans3-Regular-30"/>
       <use xlink:href="#SourceSans3-Regular-2e" transform="translate(49.699997 0)"/>
       <use xlink:href="#SourceSans3-Regular-39" transform="translate(74.599991 0)"/>
      </g>
     </g>
    </g>
    <g id="text_6">
     <!-- IoU threshold at which a detection counts as correct -->
     <g style="fill: #16212b" transform="translate(244.341484 293.548594) scale(0.17 -0.17)">
      <defs>
       <path id="SourceSans3-Regular-49" d="M 576 0 
L 576 4198 
L 1107 4198 
L 1107 0 
L 576 0 
z
" transform="scale(0.015625)"/>
       <path id="SourceSans3-Regular-6f" d="M 1734 -77 
Q 1357 -77 1027 115 
Q 698 307 496 672 
Q 294 1037 294 1549 
Q 294 2074 496 2438 
Q 698 2803 1027 2995 
Q 1357 3187 1734 3187 
Q 2118 3187 2444 2995 
Q 2771 2803 2972 2438 
Q 3174 2074 3174 1549 
Q 3174 1037 2972 672 
Q 2771 307 2444 115 
Q 2118 -77 1734 -77 
z
M 1734 358 
Q 2003 358 2208 508 
Q 2413 659 2521 928 
Q 2630 1197 2630 1549 
Q 2630 1907 2521 2179 
Q 2413 2451 2208 2601 
Q 2003 2752 1734 2752 
Q 1466 2752 1264 2601 
Q 1062 2451 950 2179 
Q 838 1907 838 1549 
Q 838 1197 950 928 
Q 1062 659 1264 508 
Q 1466 358 1734 358 
z
" transform="scale(0.015625)"/>
       <path id="SourceSans3-Regular-55" d="M 2067 -77 
Q 1741 -77 1469 16 
Q 1197 109 992 317 
Q 787 525 672 870 
Q 557 1216 557 1709 
L 557 4198 
L 1088 4198 
L 1088 1696 
Q 1088 1203 1219 918 
Q 1350 634 1571 515 
Q 1792 397 2067 397 
Q 2342 397 2569 515 
Q 2797 634 2931 918 
Q 3066 1203 3066 1696 
L 3066 4198 
L 3571 4198 
L 3571 1709 
Q 3571 1216 3459 870 
Q 3347 525 3142 317 
Q 2938 109 2662 16 
Q 2387 -77 2067 -77 
z
" transform="scale(0.015625)"/>
       <path id="SourceSans3-Regular-20" transform="scale(0.015625)"/>
       <path id="SourceSans3-Regular-74" d="M 1504 -58 
Q 1011 -58 812 230 
Q 614 518 614 979 
L 614 2682 
L 154 2682 
L 154 3078 
L 640 3110 
L 704 4109 
L 1146 4109 
L 1146 3110 
L 1990 3110 
L 1990 2682 
L 1146 2682 
L 1146 973 
Q 1146 691 1251 531 
Q 1357 371 1626 371 
Q 1709 371 1798 387 
Q 1888 403 1978 448 
L 2093 77 
Q 1971 19 1817 -19 
Q 1664 -58 1504 -58 
z
" transform="scale(0.015625)"/>
       <path id="SourceSans3-Regular-68" d="M 525 0 
L 525 4557 
L 1050 4557 
L 1050 3315 
L 1030 2675 
Q 1254 2886 1500 3036 
Q 1747 3187 2067 3187 
Q 2560 3187 2787 2876 
Q 3014 2566 3014 1971 
L 3014 0 
L 2490 0 
L 2490 1901 
Q 2490 2342 2352 2537 
Q 2214 2733 1901 2733 
Q 1664 2733 1475 2611 
Q 1286 2490 1050 2253 
L 1050 0 
L 525 0 
z
" transform="scale(0.015625)"/>
       <path id="SourceSans3-Regular-72" d="M 525 0 
L 525 3110 
L 960 3110 
L 1005 2547 
L 1024 2547 
Q 1178 2842 1408 3014 
Q 1638 3187 1907 3187 
Q 2010 3187 2086 3174 
Q 2163 3162 2240 3123 
L 2125 2675 
Q 2054 2694 1993 2704 
Q 1933 2714 1837 2714 
Q 1638 2714 1424 2554 
Q 1210 2394 1050 1997 
L 1050 0 
L 525 0 
z
" transform="scale(0.015625)"/>
       <path id="SourceSans3-Regular-65" d="M 1786 -77 
Q 1370 -77 1027 118 
Q 685 314 486 675 
Q 288 1037 288 1555 
Q 288 2061 493 2425 
Q 698 2790 1018 2988 
Q 1338 3187 1696 3187 
Q 2093 3187 2371 3004 
Q 2650 2822 2790 2496 
Q 2931 2170 2931 1728 
Q 2931 1645 2928 1568 
Q 2925 1491 2906 1414 
L 666 1414 
L 666 1830 
L 2458 1830 
Q 2458 2278 2262 2518 
Q 2067 2758 1702 2758 
Q 1491 2758 1286 2640 
Q 1082 2522 950 2259 
Q 819 1997 819 1562 
Q 819 1165 956 896 
Q 1094 627 1331 489 
Q 1568 352 1850 352 
Q 2074 352 2269 416 
Q 2464 480 2624 589 
L 2816 243 
Q 2611 102 2358 12 
Q 2106 -77 1786 -77 
z
" transform="scale(0.015625)"/>
       <path id="SourceSans3-Regular-73" d="M 1338 -77 
Q 998 -77 694 41 
Q 390 160 179 371 
L 422 678 
Q 627 512 848 422 
Q 1069 333 1357 333 
Q 1664 333 1817 477 
Q 1971 621 1971 819 
Q 1971 979 1865 1084 
Q 1760 1190 1603 1264 
Q 1446 1338 1267 1402 
Q 1037 1485 825 1597 
Q 614 1709 483 1878 
Q 352 2048 352 2304 
Q 352 2682 637 2934 
Q 922 3187 1427 3187 
Q 1715 3187 1964 3088 
Q 2214 2989 2394 2835 
L 2150 2534 
Q 1984 2650 1811 2714 
Q 1638 2778 1427 2778 
Q 1133 2778 995 2643 
Q 858 2509 858 2330 
Q 858 2189 941 2096 
Q 1024 2003 1174 1932 
Q 1325 1862 1517 1798 
Q 1760 1709 1981 1597 
Q 2202 1485 2339 1309 
Q 2477 1133 2477 851 
Q 2477 595 2345 387 
Q 2214 179 1961 51 
Q 1709 -77 1338 -77 
z
" transform="scale(0.015625)"/>
       <path id="SourceSans3-Regular-6c" d="M 1082 -58 
Q 883 -58 761 22 
Q 640 102 582 259 
Q 525 416 525 640 
L 525 4557 
L 1050 4557 
L 1050 602 
Q 1050 474 1094 426 
Q 1139 378 1203 378 
Q 1229 378 1251 381 
Q 1274 384 1312 390 
L 1389 -6 
Q 1331 -26 1257 -42 
Q 1184 -58 1082 -58 
z
" transform="scale(0.015625)"/>
       <path id="SourceSans3-Regular-64" d="M 1587 -77 
Q 998 -77 649 348 
Q 301 774 301 1549 
Q 301 2054 489 2422 
Q 678 2790 985 2988 
Q 1293 3187 1651 3187 
Q 1926 3187 2121 3094 
Q 2317 3002 2522 2829 
L 2496 3360 
L 2496 4557 
L 3027 4557 
L 3027 0 
L 2592 0 
L 2547 365 
L 2528 365 
Q 2349 186 2105 54 
Q 1862 -77 1587 -77 
z
M 1702 365 
Q 1920 365 2112 473 
Q 2304 582 2496 794 
L 2496 2419 
Q 2304 2598 2118 2672 
Q 1933 2746 1741 2746 
Q 1491 2746 1289 2595 
Q 1088 2445 966 2179 
Q 845 1914 845 1555 
Q 845 998 1069 681 
Q 1293 365 1702 365 
z
" transform="scale(0.015625)"/>
       <path id="SourceSans3-Regular-61" d="M 1242 -77 
Q 986 -77 778 28 
Q 570 134 448 329 
Q 326 525 326 806 
Q 326 1331 787 1600 
Q 1248 1869 2246 1978 
Q 2240 2170 2185 2349 
Q 2131 2528 1990 2637 
Q 1850 2746 1600 2746 
Q 1331 2746 1094 2646 
Q 858 2547 672 2426 
L 467 2784 
Q 608 2880 800 2973 
Q 992 3066 1216 3126 
Q 1440 3187 1690 3187 
Q 2067 3187 2307 3030 
Q 2547 2874 2659 2586 
Q 2771 2298 2771 1907 
L 2771 0 
L 2336 0 
L 2291 371 
L 2272 371 
Q 2048 186 1792 54 
Q 1536 -77 1242 -77 
z
M 1389 358 
Q 1619 358 1820 460 
Q 2022 563 2246 762 
L 2246 1600 
Q 1722 1536 1418 1437 
Q 1114 1338 979 1190 
Q 845 1043 845 838 
Q 845 582 1005 470 
Q 1165 358 1389 358 
z
" transform="scale(0.015625)"/>
       <path id="SourceSans3-Regular-77" d="M 1018 0 
L 154 3110 
L 704 3110 
L 1158 1312 
Q 1210 1101 1254 889 
Q 1299 678 1338 429 
L 1363 429 
Q 1414 678 1462 889 
Q 1510 1101 1562 1312 
L 2022 3110 
L 2598 3110 
L 3066 1312 
Q 3123 1101 3171 889 
Q 3219 678 3270 429 
L 3296 429 
Q 3347 678 3392 889 
Q 3437 1101 3482 1312 
L 3936 3110 
L 4448 3110 
L 3610 0 
L 2925 0 
L 2509 1664 
Q 2458 1882 2410 2096 
Q 2362 2310 2310 2586 
L 2285 2586 
Q 2240 2310 2192 2092 
Q 2144 1875 2086 1664 
L 1670 0 
L 1018 0 
z
" transform="scale(0.015625)"/>
       <path id="SourceSans3-Regular-69" d="M 525 0 
L 525 3110 
L 1050 3110 
L 1050 0 
L 525 0 
z
M 787 3750 
Q 634 3750 534 3846 
Q 435 3942 435 4096 
Q 435 4250 534 4346 
Q 634 4442 787 4442 
Q 941 4442 1040 4346 
Q 1139 4250 1139 4096 
Q 1139 3942 1040 3846 
Q 941 3750 787 3750 
z
" transform="scale(0.015625)"/>
       <path id="SourceSans3-Regular-63" d="M 1760 -77 
Q 1344 -77 1011 115 
Q 678 307 486 672 
Q 294 1037 294 1549 
Q 294 2074 502 2438 
Q 710 2803 1052 2995 
Q 1395 3187 1792 3187 
Q 2099 3187 2320 3084 
Q 2541 2982 2701 2822 
L 2438 2496 
Q 2323 2611 2166 2678 
Q 2010 2746 1811 2746 
Q 1536 2746 1315 2595 
Q 1094 2445 966 2176 
Q 838 1907 838 1549 
Q 838 1197 960 928 
Q 1082 659 1299 508 
Q 1517 358 1805 358 
Q 2022 358 2208 441 
Q 2394 525 2528 653 
L 2758 333 
Q 2560 147 2310 35 
Q 2061 -77 1760 -77 
z
" transform="scale(0.015625)"/>
       <path id="SourceSans3-Regular-6e" d="M 525 0 
L 525 3110 
L 960 3110 
L 1005 2662 
L 1024 2662 
Q 1248 2886 1497 3036 
Q 1747 3187 2067 3187 
Q 2560 3187 2787 2876 
Q 3014 2566 3014 1971 
L 3014 0 
L 2490 0 
L 2490 1901 
Q 2490 2342 2352 2537 
Q 2214 2733 1901 2733 
Q 1664 2733 1475 2611 
Q 1286 2490 1050 2253 
L 1050 0 
L 525 0 
z
" transform="scale(0.015625)"/>
       <path id="SourceSans3-Regular-75" d="M 1434 -77 
Q 941 -77 713 233 
Q 486 544 486 1139 
L 486 3110 
L 1011 3110 
L 1011 1210 
Q 1011 774 1148 579 
Q 1286 384 1594 384 
Q 1830 384 2019 509 
Q 2208 634 2432 902 
L 2432 3110 
L 2957 3110 
L 2957 0 
L 2522 0 
L 2477 486 
L 2458 486 
Q 2246 230 2000 76 
Q 1754 -77 1434 -77 
z
" transform="scale(0.015625)"/>
      </defs>
      <use xlink:href="#SourceSans3-Regular-49"/>
      <use xlink:href="#SourceSans3-Regular-6f" transform="translate(26.299988 0)"/>
      <use xlink:href="#SourceSans3-Regular-55" transform="translate(80.499985 0)"/>
      <use xlink:href="#SourceSans3-Regular-20" transform="translate(144.999969 0)"/>
      <use xlink:href="#SourceSans3-Regular-74" transform="translate(164.999954 0)"/>
      <use xlink:href="#SourceSans3-Regular-68" transform="translate(198.799942 0)"/>
      <use xlink:href="#SourceSans3-Regular-72" transform="translate(253.199936 0)"/>
      <use xlink:href="#SourceSans3-Regular-65" transform="translate(287.899933 0)"/>
      <use xlink:href="#SourceSans3-Regular-73" transform="translate(337.499924 0)"/>
      <use xlink:href="#SourceSans3-Regular-68" transform="translate(379.399918 0)"/>
      <use xlink:href="#SourceSans3-Regular-6f" transform="translate(433.799911 0)"/>
      <use xlink:href="#SourceSans3-Regular-6c" transform="translate(487.999908 0)"/>
      <use xlink:href="#SourceSans3-Regular-64" transform="translate(513.499893 0)"/>
      <use xlink:href="#SourceSans3-Regular-20" transform="translate(568.999878 0)"/>
      <use xlink:href="#SourceSans3-Regular-61" transform="translate(588.999863 0)"/>
      <use xlink:href="#SourceSans3-Regular-74" transform="translate(639.399857 0)"/>
      <use xlink:href="#SourceSans3-Regular-20" transform="translate(673.199844 0)"/>
      <use xlink:href="#SourceSans3-Regular-77" transform="translate(693.199829 0)"/>
      <use xlink:href="#SourceSans3-Regular-68" transform="translate(765.099823 0)"/>
      <use xlink:href="#SourceSans3-Regular-69" transform="translate(819.499817 0)"/>
      <use xlink:href="#SourceSans3-Regular-63" transform="translate(844.099808 0)"/>
      <use xlink:href="#SourceSans3-Regular-68" transform="translate(889.699799 0)"/>
      <use xlink:href="#SourceSans3-Regular-20" transform="translate(944.099792 0)"/>
      <use xlink:href="#SourceSans3-Regular-61" transform="translate(964.099777 0)"/>
      <use xlink:href="#SourceSans3-Regular-20" transform="translate(1014.499771 0)"/>
      <use xlink:href="#SourceSans3-Regular-64" transform="translate(1034.499756 0)"/>
      <use xlink:href="#SourceSans3-Regular-65" transform="translate(1089.999741 0)"/>
      <use xlink:href="#SourceSans3-Regular-74" transform="translate(1139.599731 0)"/>
      <use xlink:href="#SourceSans3-Regular-65" transform="translate(1173.399719 0)"/>
      <use xlink:href="#SourceSans3-Regular-63" transform="translate(1222.99971 0)"/>
      <use xlink:href="#SourceSans3-Regular-74" transform="translate(1268.599701 0)"/>
      <use xlink:href="#SourceSans3-Regular-69" transform="translate(1302.399689 0)"/>
      <use xlink:href="#SourceSans3-Regular-6f" transform="translate(1326.99968 0)"/>
      <use xlink:href="#SourceSans3-Regular-6e" transform="translate(1381.199677 0)"/>
      <use xlink:href="#SourceSans3-Regular-20" transform="translate(1435.899673 0)"/>
      <use xlink:href="#SourceSans3-Regular-63" transform="translate(1455.899658 0)"/>
      <use xlink:href="#SourceSans3-Regular-6f" transform="translate(1501.499649 0)"/>
      <use xlink:href="#SourceSans3-Regular-75" transform="translate(1555.699646 0)"/>
      <use xlink:href="#SourceSans3-Regular-6e" transform="translate(1610.09964 0)"/>
      <use xlink:href="#SourceSans3-Regular-74" transform="translate(1664.799637 0)"/>
      <use xlink:href="#SourceSans3-Regular-73" transform="translate(1698.599625 0)"/>
      <use xlink:href="#SourceSans3-Regular-20" transform="translate(1740.499619 0)"/>
      <use xlink:href="#SourceSans3-Regular-61" transform="translate(1760.499603 0)"/>
      <use xlink:href="#SourceSans3-Regular-73" transform="translate(1810.899597 0)"/>
      <use xlink:href="#SourceSans3-Regular-20" transform="translate(1852.799591 0)"/>
      <use xlink:href="#SourceSans3-Regular-63" transform="translate(1872.799576 0)"/>
      <use xlink:href="#SourceSans3-Regular-6f" transform="translate(1918.399567 0)"/>
      <use xlink:href="#SourceSans3-Regular-72" transform="translate(1972.599564 0)"/>
      <use xlink:href="#SourceSans3-Regular-72" transform="translate(2007.299561 0)"/>
      <use xlink:href="#SourceSans3-Regular-65" transform="translate(2041.999557 0)"/>
      <use xlink:href="#SourceSans3-Regular-63" transform="translate(2091.599548 0)"/>
      <use xlink:href="#SourceSans3-Regular-74" transform="translate(2137.199539 0)"/>
     </g>
    </g>
   </g>
   <g id="matplotlib.axis_2">
    <g id="ytick_1">
     <g id="line2d_11">
      <path d="M 56.036406 226.560568 
L 801.756406 226.560568 
" clip-path="url(#p64043c1c7a)" style="fill: none; stroke: #b0bcc7; stroke-width: 0.9; stroke-linecap: square"/>
     </g>
     <g id="line2d_12">
      <defs>
       <path id="m759550dcb1" d="M 0 0 
L -3.5 0 
" style="stroke: #33414d; stroke-width: 0.8"/>
      </defs>
      <g>
       <use xlink:href="#m759550dcb1" x="56.036406" y="226.560568" style="fill: #33414d; stroke: #33414d; stroke-width: 0.8"/>
      </g>
     </g>
     <g id="text_7">
      <!-- 0.1 -->
      <g style="fill: #33414d" transform="translate(30.389531 231.900802) scale(0.15 -0.15)">
       <defs>
        <path id="SourceSans3-Regular-31" d="M 506 0 
L 506 435 
L 1440 435 
L 1440 3443 
L 698 3443 
L 698 3782 
Q 973 3834 1184 3907 
Q 1395 3981 1562 4083 
L 1965 4083 
L 1965 435 
L 2810 435 
L 2810 0 
L 506 0 
z
" transform="scale(0.015625)"/>
       </defs>
       <use xlink:href="#SourceSans3-Regular-30"/>
       <use xlink:href="#SourceSans3-Regular-2e" transform="translate(49.699997 0)"/>
       <use xlink:href="#SourceSans3-Regular-31" transform="translate(74.599991 0)"/>
      </g>
     </g>
    </g>
    <g id="ytick_2">
     <g id="line2d_13">
      <path d="M 56.036406 193.322309 
L 801.756406 193.322309 
" clip-path="url(#p64043c1c7a)" style="fill: none; stroke: #b0bcc7; stroke-width: 0.9; stroke-linecap: square"/>
     </g>
     <g id="line2d_14">
      <g>
       <use xlink:href="#m759550dcb1" x="56.036406" y="193.322309" style="fill: #33414d; stroke: #33414d; stroke-width: 0.8"/>
      </g>
     </g>
     <g id="text_8">
      <!-- 0.2 -->
      <g style="fill: #33414d" transform="translate(30.389531 198.662544) scale(0.15 -0.15)">
       <defs>
        <path id="SourceSans3-Regular-32" d="M 256 0 
L 256 320 
Q 864 922 1296 1386 
Q 1728 1850 1952 2227 
Q 2176 2605 2176 2931 
Q 2176 3283 1984 3507 
Q 1792 3731 1402 3731 
Q 1146 3731 928 3590 
Q 710 3450 531 3238 
L 237 3526 
Q 493 3814 784 3987 
Q 1075 4160 1466 4160 
Q 1843 4160 2118 4009 
Q 2394 3859 2541 3590 
Q 2688 3322 2688 2963 
Q 2688 2566 2467 2176 
Q 2246 1786 1862 1357 
Q 1478 928 979 416 
Q 1146 435 1325 444 
Q 1504 454 1664 454 
L 2893 454 
L 2893 0 
L 256 0 
z
" transform="scale(0.015625)"/>
       </defs>
       <use xlink:href="#SourceSans3-Regular-30"/>
       <use xlink:href="#SourceSans3-Regular-2e" transform="translate(49.699997 0)"/>
       <use xlink:href="#SourceSans3-Regular-32" transform="translate(74.599991 0)"/>
      </g>
     </g>
    </g>
    <g id="ytick_3">
     <g id="line2d_15">
      <path d="M 56.036406 160.084051 
L 801.756406 160.084051 
" clip-path="url(#p64043c1c7a)" style="fill: none; stroke: #b0bcc7; stroke-width: 0.9; stroke-linecap: square"/>
     </g>
     <g id="line2d_16">
      <g>
       <use xlink:href="#m759550dcb1" x="56.036406" y="160.084051" style="fill: #33414d; stroke: #33414d; stroke-width: 0.8"/>
      </g>
     </g>
     <g id="text_9">
      <!-- 0.3 -->
      <g style="fill: #33414d" transform="translate(30.389531 165.424286) scale(0.15 -0.15)">
       <defs>
        <path id="SourceSans3-Regular-33" d="M 1510 -77 
Q 1184 -77 931 6 
Q 678 90 492 218 
Q 307 346 166 499 
L 435 845 
Q 621 653 867 505 
Q 1114 358 1478 358 
Q 1850 358 2086 563 
Q 2323 768 2323 1107 
Q 2323 1350 2198 1532 
Q 2074 1715 1789 1817 
Q 1504 1920 1018 1920 
L 1018 2323 
Q 1453 2323 1705 2425 
Q 1958 2528 2067 2697 
Q 2176 2867 2176 3085 
Q 2176 3386 1987 3558 
Q 1798 3731 1472 3731 
Q 1216 3731 998 3616 
Q 781 3501 602 3315 
L 320 3648 
Q 557 3872 845 4016 
Q 1133 4160 1491 4160 
Q 1850 4160 2125 4038 
Q 2400 3917 2557 3686 
Q 2714 3456 2714 3123 
Q 2714 2752 2509 2515 
Q 2304 2278 1971 2150 
L 1971 2125 
Q 2221 2067 2419 1929 
Q 2618 1792 2736 1581 
Q 2854 1370 2854 1088 
Q 2854 723 2675 464 
Q 2496 205 2189 64 
Q 1882 -77 1510 -77 
z
" transform="scale(0.015625)"/>
       </defs>
       <use xlink:href="#SourceSans3-Regular-30"/>
       <use xlink:href="#SourceSans3-Regular-2e" transform="translate(49.699997 0)"/>
       <use xlink:href="#SourceSans3-Regular-33" transform="translate(74.599991 0)"/>
      </g>
     </g>
    </g>
    <g id="ytick_4">
     <g id="line2d_17">
      <path d="M 56.036406 126.845793 
L 801.756406 126.845793 
" clip-path="url(#p64043c1c7a)" style="fill: none; stroke: #b0bcc7; stroke-width: 0.9; stroke-linecap: square"/>
     </g>
     <g id="line2d_18">
      <g>
       <use xlink:href="#m759550dcb1" x="56.036406" y="126.845793" style="fill: #33414d; stroke: #33414d; stroke-width: 0.8"/>
      </g>
     </g>
     <g id="text_10">
      <!-- 0.4 -->
      <g style="fill: #33414d" transform="translate(30.389531 132.186028) scale(0.15 -0.15)">
       <defs>
        <path id="SourceSans3-Regular-34" d="M 1946 0 
L 1946 2733 
Q 1946 2893 1958 3126 
Q 1971 3360 1978 3520 
L 1952 3520 
Q 1875 3373 1792 3235 
Q 1709 3098 1619 2944 
L 666 1549 
L 3002 1549 
L 3002 1126 
L 109 1126 
L 109 1472 
L 1856 4083 
L 2445 4083 
L 2445 0 
L 1946 0 
z
" transform="scale(0.015625)"/>
       </defs>
       <use xlink:href="#SourceSans3-Regular-30"/>
       <use xlink:href="#SourceSans3-Regular-2e" transform="translate(49.699997 0)"/>
       <use xlink:href="#SourceSans3-Regular-34" transform="translate(74.599991 0)"/>
      </g>
     </g>
    </g>
    <g id="ytick_5">
     <g id="line2d_19">
      <path d="M 56.036406 93.607535 
L 801.756406 93.607535 
" clip-path="url(#p64043c1c7a)" style="fill: none; stroke: #b0bcc7; stroke-width: 0.9; stroke-linecap: square"/>
     </g>
     <g id="line2d_20">
      <g>
       <use xlink:href="#m759550dcb1" x="56.036406" y="93.607535" style="fill: #33414d; stroke: #33414d; stroke-width: 0.8"/>
      </g>
     </g>
     <g id="text_11">
      <!-- 0.5 -->
      <g style="fill: #33414d" transform="translate(30.389531 98.947769) scale(0.15 -0.15)">
       <use xlink:href="#SourceSans3-Regular-30"/>
       <use xlink:href="#SourceSans3-Regular-2e" transform="translate(49.699997 0)"/>
       <use xlink:href="#SourceSans3-Regular-35" transform="translate(74.599991 0)"/>
      </g>
     </g>
    </g>
    <g id="ytick_6">
     <g id="line2d_21">
      <path d="M 56.036406 60.369277 
L 801.756406 60.369277 
" clip-path="url(#p64043c1c7a)" style="fill: none; stroke: #b0bcc7; stroke-width: 0.9; stroke-linecap: square"/>
     </g>
     <g id="line2d_22">
      <g>
       <use xlink:href="#m759550dcb1" x="56.036406" y="60.369277" style="fill: #33414d; stroke: #33414d; stroke-width: 0.8"/>
      </g>
     </g>
     <g id="text_12">
      <!-- 0.6 -->
      <g style="fill: #33414d" transform="translate(30.389531 65.709511) scale(0.15 -0.15)">
       <use xlink:href="#SourceSans3-Regular-30"/>
       <use xlink:href="#SourceSans3-Regular-2e" transform="translate(49.699997 0)"/>
       <use xlink:href="#SourceSans3-Regular-36" transform="translate(74.599991 0)"/>
      </g>
     </g>
    </g>
    <g id="text_13">
     <!-- mAP over classes present -->
     <g style="fill: #16212b" transform="translate(22.904531 233.235391) rotate(-90) scale(0.17 -0.17)">
      <defs>
       <path id="SourceSans3-Regular-6d" d="M 525 0 
L 525 3110 
L 960 3110 
L 1005 2662 
L 1024 2662 
Q 1229 2880 1469 3033 
Q 1709 3187 1990 3187 
Q 2349 3187 2550 3027 
Q 2752 2867 2848 2592 
Q 3091 2861 3340 3024 
Q 3590 3187 3872 3187 
Q 4358 3187 4588 2876 
Q 4819 2566 4819 1971 
L 4819 0 
L 4294 0 
L 4294 1901 
Q 4294 2342 4153 2537 
Q 4013 2733 3718 2733 
Q 3533 2733 3344 2614 
Q 3155 2496 2938 2253 
L 2938 0 
L 2413 0 
L 2413 1901 
Q 2413 2342 2272 2537 
Q 2131 2733 1830 2733 
Q 1478 2733 1050 2253 
L 1050 0 
L 525 0 
z
" transform="scale(0.015625)"/>
       <path id="SourceSans3-Regular-41" d="M 19 0 
L 1440 4198 
L 2042 4198 
L 3462 0 
L 2899 0 
L 2163 2349 
Q 2048 2701 1945 3049 
Q 1843 3398 1741 3763 
L 1715 3763 
Q 1619 3398 1516 3049 
Q 1414 2701 1299 2349 
L 557 0 
L 19 0 
z
M 762 1280 
L 762 1702 
L 2701 1702 
L 2701 1280 
L 762 1280 
z
" transform="scale(0.015625)"/>
       <path id="SourceSans3-Regular-50" d="M 576 0 
L 576 4198 
L 1773 4198 
Q 2246 4198 2598 4080 
Q 2950 3962 3148 3693 
Q 3347 3424 3347 2963 
Q 3347 2522 3152 2237 
Q 2957 1952 2608 1808 
Q 2259 1664 1798 1664 
L 1107 1664 
L 1107 0 
L 576 0 
z
M 1107 2099 
L 1734 2099 
Q 2285 2099 2550 2310 
Q 2816 2522 2816 2963 
Q 2816 3418 2537 3594 
Q 2259 3770 1709 3770 
L 1107 3770 
L 1107 2099 
z
" transform="scale(0.015625)"/>
       <path id="SourceSans3-Regular-76" d="M 1197 0 
L 77 3110 
L 621 3110 
L 1210 1344 
Q 1280 1120 1353 886 
Q 1427 653 1498 429 
L 1523 429 
Q 1587 653 1664 886 
Q 1741 1120 1805 1344 
L 2394 3110 
L 2912 3110 
L 1811 0 
L 1197 0 
z
" transform="scale(0.015625)"/>
       <path id="SourceSans3-Regular-70" d="M 525 -1312 
L 525 3110 
L 960 3110 
L 1005 2752 
L 1024 2752 
Q 1235 2931 1491 3059 
Q 1747 3187 2016 3187 
Q 2413 3187 2688 2992 
Q 2963 2797 3104 2441 
Q 3245 2086 3245 1600 
Q 3245 1075 3056 697 
Q 2867 320 2560 121 
Q 2253 -77 1901 -77 
Q 1690 -77 1472 19 
Q 1254 115 1037 282 
L 1050 -262 
L 1050 -1312 
L 525 -1312 
z
M 1811 365 
Q 2067 365 2268 512 
Q 2470 659 2585 937 
Q 2701 1216 2701 1600 
Q 2701 1939 2617 2198 
Q 2534 2458 2355 2602 
Q 2176 2746 1882 2746 
Q 1690 2746 1485 2640 
Q 1280 2534 1050 2323 
L 1050 691 
Q 1267 512 1462 438 
Q 1658 365 1811 365 
z
" transform="scale(0.015625)"/>
      </defs>
      <use xlink:href="#SourceSans3-Regular-6d"/>
      <use xlink:href="#SourceSans3-Regular-41" transform="translate(82.899994 0)"/>
      <use xlink:href="#SourceSans3-Regular-50" transform="translate(137.199982 0)"/>
      <use xlink:href="#SourceSans3-Regular-20" transform="translate(193.799973 0)"/>
      <use xlink:href="#SourceSans3-Regular-6f" transform="translate(213.799957 0)"/>
      <use xlink:href="#SourceSans3-Regular-76" transform="translate(267.999954 0)"/>
      <use xlink:href="#SourceSans3-Regular-65" transform="translate(314.699951 0)"/>
      <use xlink:href="#SourceSans3-Regular-72" transform="translate(364.299942 0)"/>
      <use xlink:href="#SourceSans3-Regular-20" transform="translate(398.999939 0)"/>
      <use xlink:href="#SourceSans3-Regular-63" transform="translate(418.999924 0)"/>
      <use xlink:href="#SourceSans3-Regular-6c" transform="translate(464.599915 0)"/>
      <use xlink:href="#SourceSans3-Regular-61" transform="translate(490.099899 0)"/>
      <use xlink:href="#SourceSans3-Regular-73" transform="translate(540.499893 0)"/>
      <use xlink:href="#SourceSans3-Regular-73" transform="translate(582.399887 0)"/>
      <use xlink:href="#SourceSans3-Regular-65" transform="translate(624.299881 0)"/>
      <use xlink:href="#SourceSans3-Regular-73" transform="translate(673.899872 0)"/>
      <use xlink:href="#SourceSans3-Regular-20" transform="translate(715.799866 0)"/>
      <use xlink:href="#SourceSans3-Regular-70" transform="translate(735.79985 0)"/>
      <use xlink:href="#SourceSans3-Regular-72" transform="translate(791.299835 0)"/>
      <use xlink:href="#SourceSans3-Regular-65" transform="translate(825.999832 0)"/>
      <use xlink:href="#SourceSans3-Regular-73" transform="translate(875.599823 0)"/>
      <use xlink:href="#SourceSans3-Regular-65" transform="translate(917.499817 0)"/>
      <use xlink:href="#SourceSans3-Regular-6e" transform="translate(967.099808 0)"/>
      <use xlink:href="#SourceSans3-Regular-74" transform="translate(1021.799805 0)"/>
     </g>
    </g>
   </g>
   <g id="line2d_23">
    <path d="M 89.93277 40.617685 
L 165.258022 45.511812 
L 240.583275 55.025895 
L 315.908527 68.39885 
L 391.23378 84.785688 
L 466.559033 101.944697 
L 541.884285 124.08582 
L 617.209538 161.575113 
L 692.53479 211.018007 
L 767.860043 246.399503 
" clip-path="url(#p64043c1c7a)" style="fill: none; stroke: #0b3d62; stroke-width: 3; stroke-linecap: square"/>
    <defs>
     <path id="md72f99ae51" d="M 0 3 
C 0.795609 3 1.55874 2.683901 2.12132 2.12132 
C 2.683901 1.55874 3 0.795609 3 0 
C 3 -0.795609 2.683901 -1.55874 2.12132 -2.12132 
C 1.55874 -2.683901 0.795609 -3 0 -3 
C -0.795609 -3 -1.55874 -2.683901 -2.12132 -2.12132 
C -2.683901 -1.55874 -3 -0.795609 -3 0 
C -3 0.795609 -2.683901 1.55874 -2.12132 2.12132 
C -1.55874 2.683901 -0.795609 3 0 3 
z
" style="stroke: #0b3d62"/>
    </defs>
    <g clip-path="url(#p64043c1c7a)">
     <use xlink:href="#md72f99ae51" x="89.93277" y="40.617685" style="fill: #0b3d62; stroke: #0b3d62"/>
     <use xlink:href="#md72f99ae51" x="165.258022" y="45.511812" style="fill: #0b3d62; stroke: #0b3d62"/>
     <use xlink:href="#md72f99ae51" x="240.583275" y="55.025895" style="fill: #0b3d62; stroke: #0b3d62"/>
     <use xlink:href="#md72f99ae51" x="315.908527" y="68.39885" style="fill: #0b3d62; stroke: #0b3d62"/>
     <use xlink:href="#md72f99ae51" x="391.23378" y="84.785688" style="fill: #0b3d62; stroke: #0b3d62"/>
     <use xlink:href="#md72f99ae51" x="466.559033" y="101.944697" style="fill: #0b3d62; stroke: #0b3d62"/>
     <use xlink:href="#md72f99ae51" x="541.884285" y="124.08582" style="fill: #0b3d62; stroke: #0b3d62"/>
     <use xlink:href="#md72f99ae51" x="617.209538" y="161.575113" style="fill: #0b3d62; stroke: #0b3d62"/>
     <use xlink:href="#md72f99ae51" x="692.53479" y="211.018007" style="fill: #0b3d62; stroke: #0b3d62"/>
     <use xlink:href="#md72f99ae51" x="767.860043" y="246.399503" style="fill: #0b3d62; stroke: #0b3d62"/>
    </g>
   </g>
   <g id="line2d_24">
    <path d="M 56.036406 113.936307 
L 801.756406 113.936307 
" clip-path="url(#p64043c1c7a)" style="fill: none; stroke-dasharray: 8.88,3.84; stroke-dashoffset: 0; stroke: #6c3483; stroke-width: 2.4"/>
   </g>
   <g id="patch_3">
    <path d="M 56.036406 256.688594 
L 56.036406 30.328594 
" style="fill: none; stroke: #7b8794; stroke-width: 1.2; stroke-linejoin: miter; stroke-linecap: square"/>
   </g>
   <g id="patch_4">
    <path d="M 56.036406 256.688594 
L 801.756406 256.688594 
" style="fill: none; stroke: #7b8794; stroke-width: 1.2; stroke-linejoin: miter; stroke-linecap: square"/>
   </g>
   <g id="patch_5">
    <path d="M 172.577907 43.393015 
Q 132.255363 42.038932 94.167627 40.759897 
" style="fill: none; stroke: #0b3d62; stroke-width: 2; stroke-linecap: round"/>
    <path d="M 100.063559 43.959581 
L 94.167627 40.759897 
L 100.264934 37.962961 
" style="fill: none; stroke: #0b3d62; stroke-width: 2; stroke-linecap: round"/>
   </g>
   <g id="text_14">
    <g id="patch_6">
     <path d="M 180.323073 57.70993 
L 295.213698 57.70993 
Q 300.463698 57.70993 300.463698 52.45993 
L 300.463698 38.704462 
Q 300.463698 33.454462 295.213698 33.454462 
L 180.323073 33.454462 
Q 175.073073 33.454462 175.073073 38.704462 
L 175.073073 52.45993 
Q 175.073073 57.70993 180.323073 57.70993 
z
" style="fill: #ffffff; stroke: #0b3d62; stroke-linejoin: miter"/>
    </g>
    <!-- mAP@0.50 = 0.659 -->
    <g style="fill: #0b3d62" transform="translate(180.323073 49.38493) scale(0.15 -0.15)">
     <defs>
      <path id="SourceSans3-Regular-40" d="M 2579 -992 
Q 2112 -992 1702 -845 
Q 1293 -698 982 -406 
Q 672 -115 499 313 
Q 326 742 326 1299 
Q 326 1946 537 2467 
Q 749 2989 1120 3363 
Q 1491 3738 1974 3936 
Q 2458 4134 2995 4134 
Q 3642 4134 4112 3868 
Q 4582 3603 4841 3126 
Q 5101 2650 5101 2016 
Q 5101 1594 4985 1270 
Q 4870 947 4681 732 
Q 4493 518 4265 409 
Q 4038 301 3821 301 
Q 3552 301 3369 425 
Q 3187 550 3155 800 
L 3142 800 
Q 2989 602 2781 474 
Q 2573 346 2362 346 
Q 2029 346 1801 586 
Q 1574 826 1574 1267 
Q 1574 1530 1660 1792 
Q 1747 2054 1913 2275 
Q 2080 2496 2310 2630 
Q 2541 2765 2822 2765 
Q 2989 2765 3117 2688 
Q 3245 2611 3334 2445 
L 3347 2445 
L 3418 2707 
L 3770 2707 
L 3520 1421 
Q 3437 1037 3523 861 
Q 3610 685 3859 685 
Q 4058 685 4243 841 
Q 4429 998 4553 1292 
Q 4678 1587 4678 1997 
Q 4678 2368 4569 2685 
Q 4461 3002 4240 3235 
Q 4019 3469 3699 3600 
Q 3379 3731 2950 3731 
Q 2534 3731 2144 3561 
Q 1754 3392 1440 3075 
Q 1126 2758 944 2313 
Q 762 1869 762 1318 
Q 762 864 899 509 
Q 1037 154 1289 -89 
Q 1542 -333 1881 -461 
Q 2221 -589 2618 -589 
Q 2906 -589 3165 -515 
Q 3424 -442 3642 -326 
L 3795 -666 
Q 3514 -826 3213 -909 
Q 2912 -992 2579 -992 
z
M 2464 736 
Q 2598 736 2745 825 
Q 2893 915 3053 1107 
L 3238 2118 
Q 3149 2259 3049 2316 
Q 2950 2374 2829 2374 
Q 2579 2374 2403 2204 
Q 2227 2035 2128 1788 
Q 2029 1542 2029 1299 
Q 2029 998 2153 867 
Q 2278 736 2464 736 
z
" transform="scale(0.015625)"/>
      <path id="SourceSans3-Regular-3d" d="M 218 2599 
L 218 2995 
L 2963 2995 
L 2963 2599 
L 218 2599 
z
M 218 1229 
L 218 1625 
L 2963 1625 
L 2963 1229 
L 218 1229 
z
" transform="scale(0.015625)"/>
     </defs>
     <use xlink:href="#SourceSans3-Regular-6d"/>
     <use xlink:href="#SourceSans3-Regular-41" transform="translate(82.899994 0)"/>
     <use xlink:href="#SourceSans3-Regular-50" transform="translate(137.199982 0)"/>
     <use xlink:href="#SourceSans3-Regular-40" transform="translate(193.799973 0)"/>
     <use xlink:href="#SourceSans3-Regular-30" transform="translate(278.499954 0)"/>
     <use xlink:href="#SourceSans3-Regular-2e" transform="translate(328.199951 0)"/>
     <use xlink:href="#SourceSans3-Regular-35" transform="translate(353.099945 0)"/>
     <use xlink:href="#SourceSans3-Regular-30" transform="translate(402.799942 0)"/>
     <use xlink:href="#SourceSans3-Regular-20" transform="translate(452.499939 0)"/>
     <use xlink:href="#SourceSans3-Regular-3d" transform="translate(472.499924 0)"/>
     <use xlink:href="#SourceSans3-Regular-20" transform="translate(522.199921 0)"/>
     <use xlink:href="#SourceSans3-Regular-30" transform="translate(542.199905 0)"/>
     <use xlink:href="#SourceSans3-Regular-2e" transform="translate(591.899902 0)"/>
     <use xlink:href="#SourceSans3-Regular-36" transform="translate(616.799896 0)"/>
     <use xlink:href="#SourceSans3-Regular-35" transform="translate(666.499893 0)"/>
     <use xlink:href="#SourceSans3-Regular-39" transform="translate(716.19989 0)"/>
    </g>
   </g>
   <g id="patch_7">
    <path d="M 495.873026 170.529237 
Q 630.901614 208.195207 763.776363 245.260368 
" style="fill: none; stroke: #c0392b; stroke-width: 2; stroke-linecap: round"/>
    <path d="M 758.803074 240.758547 
L 763.776363 245.260368 
L 757.190932 246.537906 
" style="fill: none; stroke: #c0392b; stroke-width: 2; stroke-linecap: round"/>
   </g>
   <g id="text_15">
    <g id="patch_8">
     <path d="M 391.23378 169.492312 
L 506.124405 169.492312 
Q 511.374405 169.492312 511.374405 164.242312 
L 511.374405 150.486844 
Q 511.374405 145.236844 506.124405 145.236844 
L 391.23378 145.236844 
Q 385.98378 145.236844 385.98378 150.486844 
L 385.98378 164.242312 
Q 385.98378 169.492312 391.23378 169.492312 
z
" style="fill: #ffffff; stroke: #c0392b; stroke-linejoin: miter"/>
    </g>
    <!-- mAP@0.95 = 0.040 -->
    <g style="fill: #c0392b" transform="translate(391.23378 161.167312) scale(0.15 -0.15)">
     <use xlink:href="#SourceSans3-Regular-6d"/>
     <use xlink:href="#SourceSans3-Regular-41" transform="translate(82.899994 0)"/>
     <use xlink:href="#SourceSans3-Regular-50" transform="translate(137.199982 0)"/>
     <use xlink:href="#SourceSans3-Regular-40" transform="translate(193.799973 0)"/>
     <use xlink:href="#SourceSans3-Regular-30" transform="translate(278.499954 0)"/>
     <use xlink:href="#SourceSans3-Regular-2e" transform="translate(328.199951 0)"/>
     <use xlink:href="#SourceSans3-Regular-39" transform="translate(353.099945 0)"/>
     <use xlink:href="#SourceSans3-Regular-35" transform="translate(402.799942 0)"/>
     <use xlink:href="#SourceSans3-Regular-20" transform="translate(452.499939 0)"/>
     <use xlink:href="#SourceSans3-Regular-3d" transform="translate(472.499924 0)"/>
     <use xlink:href="#SourceSans3-Regular-20" transform="translate(522.199921 0)"/>
     <use xlink:href="#SourceSans3-Regular-30" transform="translate(542.199905 0)"/>
     <use xlink:href="#SourceSans3-Regular-2e" transform="translate(591.899902 0)"/>
     <use xlink:href="#SourceSans3-Regular-30" transform="translate(616.799896 0)"/>
     <use xlink:href="#SourceSans3-Regular-34" transform="translate(666.499893 0)"/>
     <use xlink:href="#SourceSans3-Regular-30" transform="translate(716.19989 0)"/>
    </g>
   </g>
   <g id="text_16">
    <!-- the second mean: ten thresholds, collapsed to one number -->
    <g style="fill: #4b5563" transform="translate(56.036406 24.328594) scale(0.19 -0.19)">
     <defs>
      <path id="SourceSans3-Regular-3a" d="M 800 2233 
Q 646 2233 531 2345 
Q 416 2457 416 2630 
Q 416 2816 531 2928 
Q 646 3040 800 3040 
Q 960 3040 1069 2928 
Q 1178 2816 1178 2630 
Q 1178 2457 1069 2345 
Q 960 2233 800 2233 
z
M 800 -77 
Q 646 -77 531 35 
Q 416 147 416 320 
Q 416 506 531 618 
Q 646 730 800 730 
Q 960 730 1069 618 
Q 1178 506 1178 320 
Q 1178 147 1069 35 
Q 960 -77 800 -77 
z
" transform="scale(0.015625)"/>
      <path id="SourceSans3-Regular-2c" d="M 429 -1088 
L 301 -781 
Q 576 -659 729 -451 
Q 883 -243 877 13 
L 819 486 
L 1082 102 
Q 1024 45 957 19 
Q 890 -6 813 -6 
Q 659 -6 547 90 
Q 435 186 435 358 
Q 435 531 553 630 
Q 672 730 826 730 
Q 1037 730 1152 566 
Q 1267 403 1267 109 
Q 1267 -301 1043 -614 
Q 819 -928 429 -1088 
z
" transform="scale(0.015625)"/>
      <path id="SourceSans3-Regular-62" d="M 1901 -77 
Q 1683 -77 1452 28 
Q 1222 134 1011 320 
L 992 320 
L 947 0 
L 525 0 
L 525 4557 
L 1050 4557 
L 1050 3315 
L 1037 2752 
Q 1248 2938 1501 3062 
Q 1754 3187 2010 3187 
Q 2413 3187 2688 2992 
Q 2963 2797 3104 2441 
Q 3245 2086 3245 1606 
Q 3245 1075 3056 697 
Q 2867 320 2560 121 
Q 2253 -77 1901 -77 
z
M 1811 365 
Q 2067 365 2268 512 
Q 2470 659 2585 937 
Q 2701 1216 2701 1600 
Q 2701 1939 2617 2198 
Q 2534 2458 2355 2602 
Q 2176 2746 1882 2746 
Q 1690 2746 1482 2640 
Q 1274 2534 1050 2323 
L 1050 691 
Q 1254 512 1456 438 
Q 1658 365 1811 365 
z
" transform="scale(0.015625)"/>
     </defs>
     <use xlink:href="#SourceSans3-Regular-74"/>
     <use xlink:href="#SourceSans3-Regular-68" transform="translate(33.799988 0)"/>
     <use xlink:href="#SourceSans3-Regular-65" transform="translate(88.199982 0)"/>
     <use xlink:href="#SourceSans3-Regular-20" transform="translate(137.799973 0)"/>
     <use xlink:href="#SourceSans3-Regular-73" transform="translate(157.799957 0)"/>
     <use xlink:href="#SourceSans3-Regular-65" transform="translate(199.699951 0)"/>
     <use xlink:href="#SourceSans3-Regular-63" transform="translate(249.299942 0)"/>
     <use xlink:href="#SourceSans3-Regular-6f" transform="translate(294.899933 0)"/>
     <use xlink:href="#SourceSans3-Regular-6e" transform="translate(349.09993 0)"/>
     <use xlink:href="#SourceSans3-Regular-64" transform="translate(403.799927 0)"/>
     <use xlink:href="#SourceSans3-Regular-20" transform="translate(459.299911 0)"/>
     <use xlink:href="#SourceSans3-Regular-6d" transform="translate(479.299896 0)"/>
     <use xlink:href="#SourceSans3-Regular-65" transform="translate(562.19989 0)"/>
     <use xlink:href="#SourceSans3-Regular-61" transform="translate(611.799881 0)"/>
     <use xlink:href="#SourceSans3-Regular-6e" transform="translate(662.199875 0)"/>
     <use xlink:href="#SourceSans3-Regular-3a" transform="translate(716.899872 0)"/>
     <use xlink:href="#SourceSans3-Regular-20" transform="translate(741.799866 0)"/>
     <use xlink:href="#SourceSans3-Regular-74" transform="translate(761.79985 0)"/>
     <use xlink:href="#SourceSans3-Regular-65" transform="translate(795.599838 0)"/>
     <use xlink:href="#SourceSans3-Regular-6e" transform="translate(845.199829 0)"/>
     <use xlink:href="#SourceSans3-Regular-20" transform="translate(899.899826 0)"/>
     <use xlink:href="#SourceSans3-Regular-74" transform="translate(919.899811 0)"/>
     <use xlink:href="#SourceSans3-Regular-68" transform="translate(953.699799 0)"/>
     <use xlink:href="#SourceSans3-Regular-72" transform="translate(1008.099792 0)"/>
     <use xlink:href="#SourceSans3-Regular-65" transform="translate(1042.799789 0)"/>
     <use xlink:href="#SourceSans3-Regular-73" transform="translate(1092.39978 0)"/>
     <use xlink:href="#SourceSans3-Regular-68" transform="translate(1134.299774 0)"/>
     <use xlink:href="#SourceSans3-Regular-6f" transform="translate(1188.699768 0)"/>
     <use xlink:href="#SourceSans3-Regular-6c" transform="translate(1242.899765 0)"/>
     <use xlink:href="#SourceSans3-Regular-64" transform="translate(1268.39975 0)"/>
     <use xlink:href="#SourceSans3-Regular-73" transform="translate(1323.899734 0)"/>
     <use xlink:href="#SourceSans3-Regular-2c" transform="translate(1365.799728 0)"/>
     <use xlink:href="#SourceSans3-Regular-20" transform="translate(1390.699722 0)"/>
     <use xlink:href="#SourceSans3-Regular-63" transform="translate(1410.699707 0)"/>
     <use xlink:href="#SourceSans3-Regular-6f" transform="translate(1456.299698 0)"/>
     <use xlink:href="#SourceSans3-Regular-6c" transform="translate(1510.499695 0)"/>
     <use xlink:href="#SourceSans3-Regular-6c" transform="translate(1535.99968 0)"/>
     <use xlink:href="#SourceSans3-Regular-61" transform="translate(1561.499664 0)"/>
     <use xlink:href="#SourceSans3-Regular-70" transform="translate(1611.899658 0)"/>
     <use xlink:href="#SourceSans3-Regular-73" transform="translate(1667.399643 0)"/>
     <use xlink:href="#SourceSans3-Regular-65" transform="translate(1709.299637 0)"/>
     <use xlink:href="#SourceSans3-Regular-64" transform="translate(1758.899628 0)"/>
     <use xlink:href="#SourceSans3-Regular-20" transform="translate(1814.399612 0)"/>
     <use xlink:href="#SourceSans3-Regular-74" transform="translate(1834.399597 0)"/>
     <use xlink:href="#SourceSans3-Regular-6f" transform="translate(1868.199585 0)"/>
     <use xlink:href="#SourceSans3-Regular-20" transform="translate(1922.399582 0)"/>
     <use xlink:href="#SourceSans3-Regular-6f" transform="translate(1942.399567 0)"/>
     <use xlink:href="#SourceSans3-Regular-6e" transform="translate(1996.599564 0)"/>
     <use xlink:href="#SourceSans3-Regular-65" transform="translate(2051.299561 0)"/>
     <use xlink:href="#SourceSans3-Regular-20" transform="translate(2100.899551 0)"/>
     <use xlink:href="#SourceSans3-Regular-6e" transform="translate(2120.899536 0)"/>
     <use xlink:href="#SourceSans3-Regular-75" transform="translate(2175.599533 0)"/>
     <use xlink:href="#SourceSans3-Regular-6d" transform="translate(2229.999527 0)"/>
     <use xlink:href="#SourceSans3-Regular-62" transform="translate(2312.899521 0)"/>
     <use xlink:href="#SourceSans3-Regular-65" transform="translate(2368.199509 0)"/>
     <use xlink:href="#SourceSans3-Regular-72" transform="translate(2417.7995 0)"/>
    </g>
   </g>
   <g id="legend_1">
    <g id="line2d_25">
     <path d="M 515.549375 49.259062 
L 530.549375 49.259062 
L 545.549375 49.259062 
" style="fill: none; stroke-dasharray: 8.88,3.84; stroke-dashoffset: 0; stroke: #6c3483; stroke-width: 2.4"/>
    </g>
    <g id="text_17">
     <!-- mean over the ten thresholds = 0.439 -->
     <g transform="translate(557.549375 54.509062) scale(0.15 -0.15)">
      <use xlink:href="#SourceSans3-Regular-6d"/>
      <use xlink:href="#SourceSans3-Regular-65" transform="translate(82.899994 0)"/>
      <use xlink:href="#SourceSans3-Regular-61" transform="translate(132.499985 0)"/>
      <use xlink:href="#SourceSans3-Regular-6e" transform="translate(182.899979 0)"/>
      <use xlink:href="#SourceSans3-Regular-20" transform="translate(237.599976 0)"/>
      <use xlink:href="#SourceSans3-Regular-6f" transform="translate(257.59996 0)"/>
      <use xlink:href="#SourceSans3-Regular-76" transform="translate(311.799957 0)"/>
      <use xlink:href="#SourceSans3-Regular-65" transform="translate(358.499954 0)"/>
      <use xlink:href="#SourceSans3-Regular-72" transform="translate(408.099945 0)"/>
      <use xlink:href="#SourceSans3-Regular-20" transform="translate(442.799942 0)"/>
      <use xlink:href="#SourceSans3-Regular-74" transform="translate(462.799927 0)"/>
      <use xlink:href="#SourceSans3-Regular-68" transform="translate(496.599915 0)"/>
      <use xlink:href="#SourceSans3-Regular-65" transform="translate(550.999908 0)"/>
      <use xlink:href="#SourceSans3-Regular-20" transform="translate(600.599899 0)"/>
      <use xlink:href="#SourceSans3-Regular-74" transform="translate(620.599884 0)"/>
      <use xlink:href="#SourceSans3-Regular-65" transform="translate(654.399872 0)"/>
      <use xlink:href="#SourceSans3-Regular-6e" transform="translate(703.999863 0)"/>
      <use xlink:href="#SourceSans3-Regular-20" transform="translate(758.69986 0)"/>
      <use xlink:href="#SourceSans3-Regular-74" transform="translate(778.699844 0)"/>
      <use xlink:href="#SourceSans3-Regular-68" transform="translate(812.499832 0)"/>
      <use xlink:href="#SourceSans3-Regular-72" transform="translate(866.899826 0)"/>
      <use xlink:href="#SourceSans3-Regular-65" transform="translate(901.599823 0)"/>
      <use xlink:href="#SourceSans3-Regular-73" transform="translate(951.199814 0)"/>
      <use xlink:href="#SourceSans3-Regular-68" transform="translate(993.099808 0)"/>
      <use xlink:href="#SourceSans3-Regular-6f" transform="translate(1047.499802 0)"/>
      <use xlink:href="#SourceSans3-Regular-6c" transform="translate(1101.699799 0)"/>
      <use xlink:href="#SourceSans3-Regular-64" transform="translate(1127.199783 0)"/>
      <use xlink:href="#SourceSans3-Regular-73" transform="translate(1182.699768 0)"/>
      <use xlink:href="#SourceSans3-Regular-20" transform="translate(1224.599762 0)"/>
      <use xlink:href="#SourceSans3-Regular-3d" transform="translate(1244.599747 0)"/>
      <use xlink:href="#SourceSans3-Regular-20" transform="translate(1294.299744 0)"/>
      <use xlink:href="#SourceSans3-Regular-30" transform="translate(1314.299728 0)"/>
      <use xlink:href="#SourceSans3-Regular-2e" transform="translate(1363.999725 0)"/>
      <use xlink:href="#SourceSans3-Regular-34" transform="translate(1388.899719 0)"/>
      <use xlink:href="#SourceSans3-Regular-33" transform="translate(1438.599716 0)"/>
      <use xlink:href="#SourceSans3-Regular-39" transform="translate(1488.299713 0)"/>
     </g>
    </g>
   </g>
  </g>
 </g>
 <defs>
  <clipPath id="p64043c1c7a">
   <rect x="56.036406" y="30.328594" width="745.72" height="226.36"/>
  </clipPath>
 </defs>
</svg>
