<?xml version="1.0" encoding="utf-8" standalone="no"?>
<!DOCTYPE svg PUBLIC "-//W3C//DTD SVG 1.1//EN"
  "http://www.w3.org/Graphics/SVG/1.1/DTD/svg11.dtd">
<svg xmlns:xlink="http://www.w3.org/1999/xlink" width="905.366875pt" height="321.809531pt" viewBox="0 0 905.366875 321.809531" xmlns="http://www.w3.org/2000/svg" version="1.1">
 <metadata>
  <rdf:RDF xmlns:dc="http://purl.org/dc/elements/1.1/" xmlns:cc="http://creativecommons.org/ns#" xmlns:rdf="http://www.w3.org/1999/02/22-rdf-syntax-ns#">
   <cc:Work>
    <dc:type rdf:resource="http://purl.org/dc/dcmitype/StillImage"/>
    <dc:format>image/svg+xml</dc:format>
    <dc:creator>
     <cc:Agent>
      <dc:title>Matplotlib v3.10.6, https://matplotlib.org/</dc:title>
     </cc:Agent>
    </dc:creator>
   </cc:Work>
  </rdf:RDF>
 </metadata>
 <defs>
  <style type="text/css">*{stroke-linejoin: round; stroke-linecap: butt}</style>
 </defs>
 <g id="figure_1">
  <g id="patch_1">
   <path d="M 0 321.809531 
L 905.366875 321.809531 
L 905.366875 0 
L 0 0 
z
" style="fill: #ffffff"/>
  </g>
  <g id="axes_1">
   <g id="patch_2">
    <path d="M 56.036406 270.135937 
L 436.536406 270.135937 
L 436.536406 30.557187 
L 56.036406 30.557187 
z
" style="fill: #ffffff"/>
   </g>
   <g id="matplotlib.axis_1">
    <g id="text_1">
     <!-- all 73 classes present, best to worst -->
     <g style="fill: #16212b" transform="translate(121.554219 286.240469) scale(0.17 -0.17)">
      <defs>
       <path id="SourceSans3-Regular-61" d="M 1242 -77 
Q 986 -77 778 28 
Q 570 134 448 329 
Q 326 525 326 806 
Q 326 1331 787 1600 
Q 1248 1869 2246 1978 
Q 2240 2170 2185 2349 
Q 2131 2528 1990 2637 
Q 1850 2746 1600 2746 
Q 1331 2746 1094 2646 
Q 858 2547 672 2426 
L 467 2784 
Q 608 2880 800 2973 
Q 992 3066 1216 3126 
Q 1440 3187 1690 3187 
Q 2067 3187 2307 3030 
Q 2547 2874 2659 2586 
Q 2771 2298 2771 1907 
L 2771 0 
L 2336 0 
L 2291 371 
L 2272 371 
Q 2048 186 1792 54 
Q 1536 -77 1242 -77 
z
M 1389 358 
Q 1619 358 1820 460 
Q 2022 563 2246 762 
L 2246 1600 
Q 1722 1536 1418 1437 
Q 1114 1338 979 1190 
Q 845 1043 845 838 
Q 845 582 1005 470 
Q 1165 358 1389 358 
z
" transform="scale(0.015625)"/>
       <path id="SourceSans3-Regular-6c" d="M 1082 -58 
Q 883 -58 761 22 
Q 640 102 582 259 
Q 525 416 525 640 
L 525 4557 
L 1050 4557 
L 1050 602 
Q 1050 474 1094 426 
Q 1139 378 1203 378 
Q 1229 378 1251 381 
Q 1274 384 1312 390 
L 1389 -6 
Q 1331 -26 1257 -42 
Q 1184 -58 1082 -58 
z
" transform="scale(0.015625)"/>
       <path id="SourceSans3-Regular-20" transform="scale(0.015625)"/>
       <path id="SourceSans3-Regular-37" d="M 1094 0 
Q 1120 576 1200 1059 
Q 1280 1542 1424 1968 
Q 1568 2394 1789 2800 
Q 2010 3206 2323 3629 
L 282 3629 
L 282 4083 
L 2912 4083 
L 2912 3757 
Q 2547 3296 2307 2870 
Q 2067 2445 1929 2009 
Q 1792 1574 1728 1088 
Q 1664 602 1638 0 
L 1094 0 
z
" transform="scale(0.015625)"/>
       <path id="SourceSans3-Regular-33" d="M 1510 -77 
Q 1184 -77 931 6 
Q 678 90 492 218 
Q 307 346 166 499 
L 435 845 
Q 621 653 867 505 
Q 1114 358 1478 358 
Q 1850 358 2086 563 
Q 2323 768 2323 1107 
Q 2323 1350 2198 1532 
Q 2074 1715 1789 1817 
Q 1504 1920 1018 1920 
L 1018 2323 
Q 1453 2323 1705 2425 
Q 1958 2528 2067 2697 
Q 2176 2867 2176 3085 
Q 2176 3386 1987 3558 
Q 1798 3731 1472 3731 
Q 1216 3731 998 3616 
Q 781 3501 602 3315 
L 320 3648 
Q 557 3872 845 4016 
Q 1133 4160 1491 4160 
Q 1850 4160 2125 4038 
Q 2400 3917 2557 3686 
Q 2714 3456 2714 3123 
Q 2714 2752 2509 2515 
Q 2304 2278 1971 2150 
L 1971 2125 
Q 2221 2067 2419 1929 
Q 2618 1792 2736 1581 
Q 2854 1370 2854 1088 
Q 2854 723 2675 464 
Q 2496 205 2189 64 
Q 1882 -77 1510 -77 
z
" transform="scale(0.015625)"/>
       <path id="SourceSans3-Regular-63" d="M 1760 -77 
Q 1344 -77 1011 115 
Q 678 307 486 672 
Q 294 1037 294 1549 
Q 294 2074 502 2438 
Q 710 2803 1052 2995 
Q 1395 3187 1792 3187 
Q 2099 3187 2320 3084 
Q 2541 2982 2701 2822 
L 2438 2496 
Q 2323 2611 2166 2678 
Q 2010 2746 1811 2746 
Q 1536 2746 1315 2595 
Q 1094 2445 966 2176 
Q 838 1907 838 1549 
Q 838 1197 960 928 
Q 1082 659 1299 508 
Q 1517 358 1805 358 
Q 2022 358 2208 441 
Q 2394 525 2528 653 
L 2758 333 
Q 2560 147 2310 35 
Q 2061 -77 1760 -77 
z
" transform="scale(0.015625)"/>
       <path id="SourceSans3-Regular-73" d="M 1338 -77 
Q 998 -77 694 41 
Q 390 160 179 371 
L 422 678 
Q 627 512 848 422 
Q 1069 333 1357 333 
Q 1664 333 1817 477 
Q 1971 621 1971 819 
Q 1971 979 1865 1084 
Q 1760 1190 1603 1264 
Q 1446 1338 1267 1402 
Q 1037 1485 825 1597 
Q 614 1709 483 1878 
Q 352 2048 352 2304 
Q 352 2682 637 2934 
Q 922 3187 1427 3187 
Q 1715 3187 1964 3088 
Q 2214 2989 2394 2835 
L 2150 2534 
Q 1984 2650 1811 2714 
Q 1638 2778 1427 2778 
Q 1133 2778 995 2643 
Q 858 2509 858 2330 
Q 858 2189 941 2096 
Q 1024 2003 1174 1932 
Q 1325 1862 1517 1798 
Q 1760 1709 1981 1597 
Q 2202 1485 2339 1309 
Q 2477 1133 2477 851 
Q 2477 595 2345 387 
Q 2214 179 1961 51 
Q 1709 -77 1338 -77 
z
" transform="scale(0.015625)"/>
       <path id="SourceSans3-Regular-65" d="M 1786 -77 
Q 1370 -77 1027 118 
Q 685 314 486 675 
Q 288 1037 288 1555 
Q 288 2061 493 2425 
Q 698 2790 1018 2988 
Q 1338 3187 1696 3187 
Q 2093 3187 2371 3004 
Q 2650 2822 2790 2496 
Q 2931 2170 2931 1728 
Q 2931 1645 2928 1568 
Q 2925 1491 2906 1414 
L 666 1414 
L 666 1830 
L 2458 1830 
Q 2458 2278 2262 2518 
Q 2067 2758 1702 2758 
Q 1491 2758 1286 2640 
Q 1082 2522 950 2259 
Q 819 1997 819 1562 
Q 819 1165 956 896 
Q 1094 627 1331 489 
Q 1568 352 1850 352 
Q 2074 352 2269 416 
Q 2464 480 2624 589 
L 2816 243 
Q 2611 102 2358 12 
Q 2106 -77 1786 -77 
z
" transform="scale(0.015625)"/>
       <path id="SourceSans3-Regular-70" d="M 525 -1312 
L 525 3110 
L 960 3110 
L 1005 2752 
L 1024 2752 
Q 1235 2931 1491 3059 
Q 1747 3187 2016 3187 
Q 2413 3187 2688 2992 
Q 2963 2797 3104 2441 
Q 3245 2086 3245 1600 
Q 3245 1075 3056 697 
Q 2867 320 2560 121 
Q 2253 -77 1901 -77 
Q 1690 -77 1472 19 
Q 1254 115 1037 282 
L 1050 -262 
L 1050 -1312 
L 525 -1312 
z
M 1811 365 
Q 2067 365 2268 512 
Q 2470 659 2585 937 
Q 2701 1216 2701 1600 
Q 2701 1939 2617 2198 
Q 2534 2458 2355 2602 
Q 2176 2746 1882 2746 
Q 1690 2746 1485 2640 
Q 1280 2534 1050 2323 
L 1050 691 
Q 1267 512 1462 438 
Q 1658 365 1811 365 
z
" transform="scale(0.015625)"/>
       <path id="SourceSans3-Regular-72" d="M 525 0 
L 525 3110 
L 960 3110 
L 1005 2547 
L 1024 2547 
Q 1178 2842 1408 3014 
Q 1638 3187 1907 3187 
Q 2010 3187 2086 3174 
Q 2163 3162 2240 3123 
L 2125 2675 
Q 2054 2694 1993 2704 
Q 1933 2714 1837 2714 
Q 1638 2714 1424 2554 
Q 1210 2394 1050 1997 
L 1050 0 
L 525 0 
z
" transform="scale(0.015625)"/>
       <path id="SourceSans3-Regular-6e" d="M 525 0 
L 525 3110 
L 960 3110 
L 1005 2662 
L 1024 2662 
Q 1248 2886 1497 3036 
Q 1747 3187 2067 3187 
Q 2560 3187 2787 2876 
Q 3014 2566 3014 1971 
L 3014 0 
L 2490 0 
L 2490 1901 
Q 2490 2342 2352 2537 
Q 2214 2733 1901 2733 
Q 1664 2733 1475 2611 
Q 1286 2490 1050 2253 
L 1050 0 
L 525 0 
z
" transform="scale(0.015625)"/>
       <path id="SourceSans3-Regular-74" d="M 1504 -58 
Q 1011 -58 812 230 
Q 614 518 614 979 
L 614 2682 
L 154 2682 
L 154 3078 
L 640 3110 
L 704 4109 
L 1146 4109 
L 1146 3110 
L 1990 3110 
L 1990 2682 
L 1146 2682 
L 1146 973 
Q 1146 691 1251 531 
Q 1357 371 1626 371 
Q 1709 371 1798 387 
Q 1888 403 1978 448 
L 2093 77 
Q 1971 19 1817 -19 
Q 1664 -58 1504 -58 
z
" transform="scale(0.015625)"/>
       <path id="SourceSans3-Regular-2c" d="M 429 -1088 
L 301 -781 
Q 576 -659 729 -451 
Q 883 -243 877 13 
L 819 486 
L 1082 102 
Q 1024 45 957 19 
Q 890 -6 813 -6 
Q 659 -6 547 90 
Q 435 186 435 358 
Q 435 531 553 630 
Q 672 730 826 730 
Q 1037 730 1152 566 
Q 1267 403 1267 109 
Q 1267 -301 1043 -614 
Q 819 -928 429 -1088 
z
" transform="scale(0.015625)"/>
       <path id="SourceSans3-Regular-62" d="M 1901 -77 
Q 1683 -77 1452 28 
Q 1222 134 1011 320 
L 992 320 
L 947 0 
L 525 0 
L 525 4557 
L 1050 4557 
L 1050 3315 
L 1037 2752 
Q 1248 2938 1501 3062 
Q 1754 3187 2010 3187 
Q 2413 3187 2688 2992 
Q 2963 2797 3104 2441 
Q 3245 2086 3245 1606 
Q 3245 1075 3056 697 
Q 2867 320 2560 121 
Q 2253 -77 1901 -77 
z
M 1811 365 
Q 2067 365 2268 512 
Q 2470 659 2585 937 
Q 2701 1216 2701 1600 
Q 2701 1939 2617 2198 
Q 2534 2458 2355 2602 
Q 2176 2746 1882 2746 
Q 1690 2746 1482 2640 
Q 1274 2534 1050 2323 
L 1050 691 
Q 1254 512 1456 438 
Q 1658 365 1811 365 
z
" transform="scale(0.015625)"/>
       <path id="SourceSans3-Regular-6f" d="M 1734 -77 
Q 1357 -77 1027 115 
Q 698 307 496 672 
Q 294 1037 294 1549 
Q 294 2074 496 2438 
Q 698 2803 1027 2995 
Q 1357 3187 1734 3187 
Q 2118 3187 2444 2995 
Q 2771 2803 2972 2438 
Q 3174 2074 3174 1549 
Q 3174 1037 2972 672 
Q 2771 307 2444 115 
Q 2118 -77 1734 -77 
z
M 1734 358 
Q 2003 358 2208 508 
Q 2413 659 2521 928 
Q 2630 1197 2630 1549 
Q 2630 1907 2521 2179 
Q 2413 2451 2208 2601 
Q 2003 2752 1734 2752 
Q 1466 2752 1264 2601 
Q 1062 2451 950 2179 
Q 838 1907 838 1549 
Q 838 1197 950 928 
Q 1062 659 1264 508 
Q 1466 358 1734 358 
z
" transform="scale(0.015625)"/>
       <path id="SourceSans3-Regular-77" d="M 1018 0 
L 154 3110 
L 704 3110 
L 1158 1312 
Q 1210 1101 1254 889 
Q 1299 678 1338 429 
L 1363 429 
Q 1414 678 1462 889 
Q 1510 1101 1562 1312 
L 2022 3110 
L 2598 3110 
L 3066 1312 
Q 3123 1101 3171 889 
Q 3219 678 3270 429 
L 3296 429 
Q 3347 678 3392 889 
Q 3437 1101 3482 1312 
L 3936 3110 
L 4448 3110 
L 3610 0 
L 2925 0 
L 2509 1664 
Q 2458 1882 2410 2096 
Q 2362 2310 2310 2586 
L 2285 2586 
Q 2240 2310 2192 2092 
Q 2144 1875 2086 1664 
L 1670 0 
L 1018 0 
z
" transform="scale(0.015625)"/>
      </defs>
      <use xlink:href="#SourceSans3-Regular-61"/>
      <use xlink:href="#SourceSans3-Regular-6c" transform="translate(50.399994 0)"/>
      <use xlink:href="#SourceSans3-Regular-6c" transform="translate(75.899979 0)"/>
      <use xlink:href="#SourceSans3-Regular-20" transform="translate(101.399963 0)"/>
      <use xlink:href="#SourceSans3-Regular-37" transform="translate(121.399948 0)"/>
      <use xlink:href="#SourceSans3-Regular-33" transform="translate(171.099945 0)"/>
      <use xlink:href="#SourceSans3-Regular-20" transform="translate(220.799942 0)"/>
      <use xlink:href="#SourceSans3-Regular-63" transform="translate(240.799927 0)"/>
      <use xlink:href="#SourceSans3-Regular-6c" transform="translate(286.399918 0)"/>
      <use xlink:href="#SourceSans3-Regular-61" transform="translate(311.899902 0)"/>
      <use xlink:href="#SourceSans3-Regular-73" transform="translate(362.299896 0)"/>
      <use xlink:href="#SourceSans3-Regular-73" transform="translate(404.19989 0)"/>
      <use xlink:href="#SourceSans3-Regular-65" transform="translate(446.099884 0)"/>
      <use xlink:href="#SourceSans3-Regular-73" transform="translate(495.699875 0)"/>
      <use xlink:href="#SourceSans3-Regular-20" transform="translate(537.599869 0)"/>
      <use xlink:href="#SourceSans3-Regular-70" transform="translate(557.599854 0)"/>
      <use xlink:href="#SourceSans3-Regular-72" transform="translate(613.099838 0)"/>
      <use xlink:href="#SourceSans3-Regular-65" transform="translate(647.799835 0)"/>
      <use xlink:href="#SourceSans3-Regular-73" transform="translate(697.399826 0)"/>
      <use xlink:href="#SourceSans3-Regular-65" transform="translate(739.29982 0)"/>
      <use xlink:href="#SourceSans3-Regular-6e" transform="translate(788.899811 0)"/>
      <use xlink:href="#SourceSans3-Regular-74" transform="translate(843.599808 0)"/>
      <use xlink:href="#SourceSans3-Regular-2c" transform="translate(877.399796 0)"/>
      <use xlink:href="#SourceSans3-Regular-20" transform="translate(902.299789 0)"/>
      <use xlink:href="#SourceSans3-Regular-62" transform="translate(922.299774 0)"/>
      <use xlink:href="#SourceSans3-Regular-65" transform="translate(977.599762 0)"/>
      <use xlink:href="#SourceSans3-Regular-73" transform="translate(1027.199753 0)"/>
      <use xlink:href="#SourceSans3-Regular-74" transform="translate(1069.099747 0)"/>
      <use xlink:href="#SourceSans3-Regular-20" transform="translate(1102.899734 0)"/>
      <use xlink:href="#SourceSans3-Regular-74" transform="translate(1122.899719 0)"/>
      <use xlink:href="#SourceSans3-Regular-6f" transform="translate(1156.699707 0)"/>
      <use xlink:href="#SourceSans3-Regular-20" transform="translate(1210.899704 0)"/>
      <use xlink:href="#SourceSans3-Regular-77" transform="translate(1230.899689 0)"/>
      <use xlink:href="#SourceSans3-Regular-6f" transform="translate(1302.799683 0)"/>
      <use xlink:href="#SourceSans3-Regular-72" transform="translate(1356.99968 0)"/>
      <use xlink:href="#SourceSans3-Regular-73" transform="translate(1391.699677 0)"/>
      <use xlink:href="#SourceSans3-Regular-74" transform="translate(1433.59967 0)"/>
     </g>
    </g>
   </g>
   <g id="matplotlib.axis_2">
    <g id="ytick_1">
     <g id="line2d_1">
      <path d="M 56.036406 270.135937 
L 436.536406 270.135937 
" clip-path="url(#pd9e2ace9ff)" style="fill: none; stroke: #b0bcc7; stroke-width: 0.9; stroke-linecap: square"/>
     </g>
     <g id="line2d_2">
      <defs>
       <path id="m759550dcb1" d="M 0 0 
L -3.5 0 
" style="stroke: #33414d; stroke-width: 0.8"/>
      </defs>
      <g>
       <use xlink:href="#m759550dcb1" x="56.036406" y="270.135937" style="fill: #33414d; stroke: #33414d; stroke-width: 0.8"/>
      </g>
     </g>
     <g id="text_2">
      <!-- 0.0 -->
      <g style="fill: #33414d" transform="translate(30.389531 275.476172) scale(0.15 -0.15)">
       <defs>
        <path id="SourceSans3-Regular-30" d="M 1594 -77 
Q 979 -77 630 476 
Q 282 1030 282 2054 
Q 282 3085 630 3622 
Q 979 4160 1594 4160 
Q 2202 4160 2550 3619 
Q 2899 3078 2899 2054 
Q 2899 1030 2550 476 
Q 2202 -77 1594 -77 
z
M 1594 346 
Q 1830 346 2009 525 
Q 2189 704 2288 1081 
Q 2387 1459 2387 2054 
Q 2387 2656 2288 3027 
Q 2189 3398 2009 3568 
Q 1830 3738 1594 3738 
Q 1350 3738 1171 3568 
Q 992 3398 893 3027 
Q 794 2656 794 2054 
Q 794 1459 893 1081 
Q 992 704 1171 525 
Q 1350 346 1594 346 
z
" transform="scale(0.015625)"/>
        <path id="SourceSans3-Regular-2e" d="M 800 -77 
Q 646 -77 531 35 
Q 416 147 416 320 
Q 416 506 531 618 
Q 646 730 800 730 
Q 960 730 1069 618 
Q 1178 506 1178 320 
Q 1178 147 1069 35 
Q 960 -77 800 -77 
z
" transform="scale(0.015625)"/>
       </defs>
       <use xlink:href="#SourceSans3-Regular-30"/>
       <use xlink:href="#SourceSans3-Regular-2e" transform="translate(49.699997 0)"/>
       <use xlink:href="#SourceSans3-Regular-30" transform="translate(74.599991 0)"/>
      </g>
     </g>
    </g>
    <g id="ytick_2">
     <g id="line2d_3">
      <path d="M 56.036406 224.50189 
L 436.536406 224.50189 
" clip-path="url(#pd9e2ace9ff)" style="fill: none; stroke: #b0bcc7; stroke-width: 0.9; stroke-linecap: square"/>
     </g>
     <g id="line2d_4">
      <g>
       <use xlink:href="#m759550dcb1" x="56.036406" y="224.50189" style="fill: #33414d; stroke: #33414d; stroke-width: 0.8"/>
      </g>
     </g>
     <g id="text_3">
      <!-- 0.2 -->
      <g style="fill: #33414d" transform="translate(30.389531 229.842124) scale(0.15 -0.15)">
       <defs>
        <path id="SourceSans3-Regular-32" d="M 256 0 
L 256 320 
Q 864 922 1296 1386 
Q 1728 1850 1952 2227 
Q 2176 2605 2176 2931 
Q 2176 3283 1984 3507 
Q 1792 3731 1402 3731 
Q 1146 3731 928 3590 
Q 710 3450 531 3238 
L 237 3526 
Q 493 3814 784 3987 
Q 1075 4160 1466 4160 
Q 1843 4160 2118 4009 
Q 2394 3859 2541 3590 
Q 2688 3322 2688 2963 
Q 2688 2566 2467 2176 
Q 2246 1786 1862 1357 
Q 1478 928 979 416 
Q 1146 435 1325 444 
Q 1504 454 1664 454 
L 2893 454 
L 2893 0 
L 256 0 
z
" transform="scale(0.015625)"/>
       </defs>
       <use xlink:href="#SourceSans3-Regular-30"/>
       <use xlink:href="#SourceSans3-Regular-2e" transform="translate(49.699997 0)"/>
       <use xlink:href="#SourceSans3-Regular-32" transform="translate(74.599991 0)"/>
      </g>
     </g>
    </g>
    <g id="ytick_3">
     <g id="line2d_5">
      <path d="M 56.036406 178.867842 
L 436.536406 178.867842 
" clip-path="url(#pd9e2ace9ff)" style="fill: none; stroke: #b0bcc7; stroke-width: 0.9; stroke-linecap: square"/>
     </g>
     <g id="line2d_6">
      <g>
       <use xlink:href="#m759550dcb1" x="56.036406" y="178.867842" style="fill: #33414d; stroke: #33414d; stroke-width: 0.8"/>
      </g>
     </g>
     <g id="text_4">
      <!-- 0.4 -->
      <g style="fill: #33414d" transform="translate(30.389531 184.208077) scale(0.15 -0.15)">
       <defs>
        <path id="SourceSans3-Regular-34" d="M 1946 0 
L 1946 2733 
Q 1946 2893 1958 3126 
Q 1971 3360 1978 3520 
L 1952 3520 
Q 1875 3373 1792 3235 
Q 1709 3098 1619 2944 
L 666 1549 
L 3002 1549 
L 3002 1126 
L 109 1126 
L 109 1472 
L 1856 4083 
L 2445 4083 
L 2445 0 
L 1946 0 
z
" transform="scale(0.015625)"/>
       </defs>
       <use xlink:href="#SourceSans3-Regular-30"/>
       <use xlink:href="#SourceSans3-Regular-2e" transform="translate(49.699997 0)"/>
       <use xlink:href="#SourceSans3-Regular-34" transform="translate(74.599991 0)"/>
      </g>
     </g>
    </g>
    <g id="ytick_4">
     <g id="line2d_7">
      <path d="M 56.036406 133.233795 
L 436.536406 133.233795 
" clip-path="url(#pd9e2ace9ff)" style="fill: none; stroke: #b0bcc7; stroke-width: 0.9; stroke-linecap: square"/>
     </g>
     <g id="line2d_8">
      <g>
       <use xlink:href="#m759550dcb1" x="56.036406" y="133.233795" style="fill: #33414d; stroke: #33414d; stroke-width: 0.8"/>
      </g>
     </g>
     <g id="text_5">
      <!-- 0.6 -->
      <g style="fill: #33414d" transform="translate(30.389531 138.574029) scale(0.15 -0.15)">
       <defs>
        <path id="SourceSans3-Regular-36" d="M 1715 -77 
Q 1414 -77 1158 44 
Q 902 166 713 412 
Q 525 659 416 1027 
Q 307 1395 307 1888 
Q 307 2502 435 2934 
Q 563 3366 780 3635 
Q 998 3904 1276 4032 
Q 1555 4160 1862 4160 
Q 2195 4160 2435 4035 
Q 2675 3910 2848 3725 
L 2554 3398 
Q 2432 3546 2253 3632 
Q 2074 3718 1882 3718 
Q 1594 3718 1347 3545 
Q 1101 3373 953 2973 
Q 806 2573 806 1888 
Q 806 1382 912 1036 
Q 1018 691 1222 515 
Q 1427 339 1715 339 
Q 1914 339 2077 451 
Q 2240 563 2333 764 
Q 2426 966 2426 1235 
Q 2426 1498 2342 1693 
Q 2259 1888 2092 1993 
Q 1926 2099 1670 2099 
Q 1472 2099 1238 1968 
Q 1005 1837 794 1523 
L 774 1939 
Q 973 2195 1235 2345 
Q 1498 2496 1760 2496 
Q 2112 2496 2374 2355 
Q 2637 2214 2781 1932 
Q 2925 1651 2925 1235 
Q 2925 845 2758 550 
Q 2592 256 2317 89 
Q 2042 -77 1715 -77 
z
" transform="scale(0.015625)"/>
       </defs>
       <use xlink:href="#SourceSans3-Regular-30"/>
       <use xlink:href="#SourceSans3-Regular-2e" transform="translate(49.699997 0)"/>
       <use xlink:href="#SourceSans3-Regular-36" transform="translate(74.599991 0)"/>
      </g>
     </g>
    </g>
    <g id="ytick_5">
     <g id="line2d_9">
      <path d="M 56.036406 87.599747 
L 436.536406 87.599747 
" clip-path="url(#pd9e2ace9ff)" style="fill: none; stroke: #b0bcc7; stroke-width: 0.9; stroke-linecap: square"/>
     </g>
     <g id="line2d_10">
      <g>
       <use xlink:href="#m759550dcb1" x="56.036406" y="87.599747" style="fill: #33414d; stroke: #33414d; stroke-width: 0.8"/>
      </g>
     </g>
     <g id="text_6">
      <!-- 0.8 -->
      <g style="fill: #33414d" transform="translate(30.389531 92.939981) scale(0.15 -0.15)">
       <defs>
        <path id="SourceSans3-Regular-38" d="M 1600 -77 
Q 1216 -77 912 67 
Q 608 211 435 467 
Q 262 723 262 1043 
Q 262 1312 374 1520 
Q 486 1728 662 1885 
Q 838 2042 1030 2144 
L 1030 2170 
Q 806 2330 633 2560 
Q 461 2790 461 3110 
Q 461 3424 614 3661 
Q 768 3898 1027 4029 
Q 1286 4160 1619 4160 
Q 2150 4160 2460 3856 
Q 2771 3552 2771 3072 
Q 2771 2861 2681 2672 
Q 2592 2483 2464 2332 
Q 2336 2182 2208 2086 
L 2208 2061 
Q 2387 1958 2550 1817 
Q 2714 1677 2816 1481 
Q 2918 1286 2918 1011 
Q 2918 710 2755 464 
Q 2592 218 2294 70 
Q 1997 -77 1600 -77 
z
M 1888 2227 
Q 2099 2413 2208 2617 
Q 2317 2822 2317 3046 
Q 2317 3245 2233 3408 
Q 2150 3571 1990 3670 
Q 1830 3770 1606 3770 
Q 1325 3770 1136 3587 
Q 947 3405 947 3110 
Q 947 2867 1078 2707 
Q 1210 2547 1424 2435 
Q 1638 2323 1888 2227 
z
M 1613 314 
Q 1850 314 2029 403 
Q 2208 493 2310 656 
Q 2413 819 2413 1030 
Q 2413 1293 2259 1459 
Q 2106 1626 1856 1744 
Q 1606 1862 1306 1984 
Q 1062 1824 899 1600 
Q 736 1376 736 1094 
Q 736 870 851 694 
Q 966 518 1164 416 
Q 1363 314 1613 314 
z
" transform="scale(0.015625)"/>
       </defs>
       <use xlink:href="#SourceSans3-Regular-30"/>
       <use xlink:href="#SourceSans3-Regular-2e" transform="translate(49.699997 0)"/>
       <use xlink:href="#SourceSans3-Regular-38" transform="translate(74.599991 0)"/>
      </g>
     </g>
    </g>
    <g id="ytick_6">
     <g id="line2d_11">
      <path d="M 56.036406 41.965699 
L 436.536406 41.965699 
" clip-path="url(#pd9e2ace9ff)" style="fill: none; stroke: #b0bcc7; stroke-width: 0.9; stroke-linecap: square"/>
     </g>
     <g id="line2d_12">
      <g>
       <use xlink:href="#m759550dcb1" x="56.036406" y="41.965699" style="fill: #33414d; stroke: #33414d; stroke-width: 0.8"/>
      </g>
     </g>
     <g id="text_7">
      <!-- 1.0 -->
      <g style="fill: #33414d" transform="translate(30.389531 47.305934) scale(0.15 -0.15)">
       <defs>
        <path id="SourceSans3-Regular-31" d="M 506 0 
L 506 435 
L 1440 435 
L 1440 3443 
L 698 3443 
L 698 3782 
Q 973 3834 1184 3907 
Q 1395 3981 1562 4083 
L 1965 4083 
L 1965 435 
L 2810 435 
L 2810 0 
L 506 0 
z
" transform="scale(0.015625)"/>
       </defs>
       <use xlink:href="#SourceSans3-Regular-31"/>
       <use xlink:href="#SourceSans3-Regular-2e" transform="translate(49.699997 0)"/>
       <use xlink:href="#SourceSans3-Regular-30" transform="translate(74.599991 0)"/>
      </g>
     </g>
    </g>
    <g id="text_8">
     <!-- AP at IoU ≥ 0.5 -->
     <g style="fill: #16212b" transform="translate(22.904531 200.845859) rotate(-90) scale(0.17 -0.17)">
      <defs>
       <path id="SourceSans3-Regular-41" d="M 19 0 
L 1440 4198 
L 2042 4198 
L 3462 0 
L 2899 0 
L 2163 2349 
Q 2048 2701 1945 3049 
Q 1843 3398 1741 3763 
L 1715 3763 
Q 1619 3398 1516 3049 
Q 1414 2701 1299 2349 
L 557 0 
L 19 0 
z
M 762 1280 
L 762 1702 
L 2701 1702 
L 2701 1280 
L 762 1280 
z
" transform="scale(0.015625)"/>
       <path id="SourceSans3-Regular-50" d="M 576 0 
L 576 4198 
L 1773 4198 
Q 2246 4198 2598 4080 
Q 2950 3962 3148 3693 
Q 3347 3424 3347 2963 
Q 3347 2522 3152 2237 
Q 2957 1952 2608 1808 
Q 2259 1664 1798 1664 
L 1107 1664 
L 1107 0 
L 576 0 
z
M 1107 2099 
L 1734 2099 
Q 2285 2099 2550 2310 
Q 2816 2522 2816 2963 
Q 2816 3418 2537 3594 
Q 2259 3770 1709 3770 
L 1107 3770 
L 1107 2099 
z
" transform="scale(0.015625)"/>
       <path id="SourceSans3-Regular-49" d="M 576 0 
L 576 4198 
L 1107 4198 
L 1107 0 
L 576 0 
z
" transform="scale(0.015625)"/>
       <path id="SourceSans3-Regular-55" d="M 2067 -77 
Q 1741 -77 1469 16 
Q 1197 109 992 317 
Q 787 525 672 870 
Q 557 1216 557 1709 
L 557 4198 
L 1088 4198 
L 1088 1696 
Q 1088 1203 1219 918 
Q 1350 634 1571 515 
Q 1792 397 2067 397 
Q 2342 397 2569 515 
Q 2797 634 2931 918 
Q 3066 1203 3066 1696 
L 3066 4198 
L 3571 4198 
L 3571 1709 
Q 3571 1216 3459 870 
Q 3347 525 3142 317 
Q 2938 109 2662 16 
Q 2387 -77 2067 -77 
z
" transform="scale(0.015625)"/>
       <path id="SourceSans3-Regular-2265" d="M 218 979 
L 218 1434 
L 1562 1901 
L 2426 2182 
L 2426 2208 
L 1562 2490 
L 218 2957 
L 218 3411 
L 2963 2432 
L 2963 1958 
L 218 979 
z
M 218 0 
L 218 397 
L 2963 397 
L 2963 0 
L 218 0 
z
" transform="scale(0.015625)"/>
       <path id="SourceSans3-Regular-35" d="M 1498 -77 
Q 1171 -77 921 3 
Q 672 83 486 211 
Q 301 339 160 480 
L 416 826 
Q 602 646 845 502 
Q 1088 358 1446 358 
Q 1696 358 1897 473 
Q 2099 589 2220 797 
Q 2342 1005 2342 1293 
Q 2342 1715 2105 1952 
Q 1869 2189 1472 2189 
Q 1267 2189 1113 2125 
Q 960 2061 774 1939 
L 493 2118 
L 627 4083 
L 2669 4083 
L 2669 3629 
L 1088 3629 
L 979 2419 
Q 1126 2496 1273 2541 
Q 1421 2586 1606 2586 
Q 1958 2586 2246 2451 
Q 2534 2317 2704 2032 
Q 2874 1747 2874 1306 
Q 2874 864 2678 553 
Q 2483 243 2169 83 
Q 1856 -77 1498 -77 
z
" transform="scale(0.015625)"/>
      </defs>
      <use xlink:href="#SourceSans3-Regular-41"/>
      <use xlink:href="#SourceSans3-Regular-50" transform="translate(54.299988 0)"/>
      <use xlink:href="#SourceSans3-Regular-20" transform="translate(110.899979 0)"/>
      <use xlink:href="#SourceSans3-Regular-61" transform="translate(130.899963 0)"/>
      <use xlink:href="#SourceSans3-Regular-74" transform="translate(181.299957 0)"/>
      <use xlink:href="#SourceSans3-Regular-20" transform="translate(215.099945 0)"/>
      <use xlink:href="#SourceSans3-Regular-49" transform="translate(235.09993 0)"/>
      <use xlink:href="#SourceSans3-Regular-6f" transform="translate(261.399918 0)"/>
      <use xlink:href="#SourceSans3-Regular-55" transform="translate(315.599915 0)"/>
      <use xlink:href="#SourceSans3-Regular-20" transform="translate(380.099899 0)"/>
      <use xlink:href="#SourceSans3-Regular-2265" transform="translate(400.099884 0)"/>
      <use xlink:href="#SourceSans3-Regular-20" transform="translate(449.799881 0)"/>
      <use xlink:href="#SourceSans3-Regular-30" transform="translate(469.799866 0)"/>
      <use xlink:href="#SourceSans3-Regular-2e" transform="translate(519.499863 0)"/>
      <use xlink:href="#SourceSans3-Regular-35" transform="translate(544.399857 0)"/>
     </g>
    </g>
   </g>
   <g id="patch_3">
    <path d="M 73.331861 270.135937 
L 77.602343 270.135937 
L 77.602343 41.965699 
L 73.331861 41.965699 
z
" clip-path="url(#pd9e2ace9ff)" style="fill: #14663a"/>
   </g>
   <g id="patch_4">
    <path d="M 78.076841 270.135937 
L 82.347324 270.135937 
L 82.347324 41.965699 
L 78.076841 41.965699 
z
" clip-path="url(#pd9e2ace9ff)" style="fill: #14663a"/>
   </g>
   <g id="patch_5">
    <path d="M 82.821822 270.135937 
L 87.092305 270.135937 
L 87.092305 41.965699 
L 82.821822 41.965699 
z
" clip-path="url(#pd9e2ace9ff)" style="fill: #14663a"/>
   </g>
   <g id="patch_6">
    <path d="M 87.566803 270.135937 
L 91.837285 270.135937 
L 91.837285 41.965699 
L 87.566803 41.965699 
z
" clip-path="url(#pd9e2ace9ff)" style="fill: #14663a"/>
   </g>
   <g id="patch_7">
    <path d="M 92.311783 270.135937 
L 96.582266 270.135937 
L 96.582266 41.965699 
L 92.311783 41.965699 
z
" clip-path="url(#pd9e2ace9ff)" style="fill: #14663a"/>
   </g>
   <g id="patch_8">
    <path d="M 97.056764 270.135937 
L 101.327247 270.135937 
L 101.327247 41.965699 
L 97.056764 41.965699 
z
" clip-path="url(#pd9e2ace9ff)" style="fill: #14663a"/>
   </g>
   <g id="patch_9">
    <path d="M 101.801745 270.135937 
L 106.072227 270.135937 
L 106.072227 41.965699 
L 101.801745 41.965699 
z
" clip-path="url(#pd9e2ace9ff)" style="fill: #14663a"/>
   </g>
   <g id="patch_10">
    <path d="M 106.546725 270.135937 
L 110.817208 270.135937 
L 110.817208 41.965699 
L 106.546725 41.965699 
z
" clip-path="url(#pd9e2ace9ff)" style="fill: #14663a"/>
   </g>
   <g id="patch_11">
    <path d="M 111.291706 270.135937 
L 115.562189 270.135937 
L 115.562189 41.965699 
L 111.291706 41.965699 
z
" clip-path="url(#pd9e2ace9ff)" style="fill: #14663a"/>
   </g>
   <g id="patch_12">
    <path d="M 116.036687 270.135937 
L 120.307169 270.135937 
L 120.307169 41.965699 
L 116.036687 41.965699 
z
" clip-path="url(#pd9e2ace9ff)" style="fill: #14663a"/>
   </g>
   <g id="patch_13">
    <path d="M 120.781668 270.135937 
L 125.05215 270.135937 
L 125.05215 41.965699 
L 120.781668 41.965699 
z
" clip-path="url(#pd9e2ace9ff)" style="fill: #14663a"/>
   </g>
   <g id="patch_14">
    <path d="M 125.526648 270.135937 
L 129.797131 270.135937 
L 129.797131 41.965699 
L 125.526648 41.965699 
z
" clip-path="url(#pd9e2ace9ff)" style="fill: #14663a"/>
   </g>
   <g id="patch_15">
    <path d="M 130.271629 270.135937 
L 134.542111 270.135937 
L 134.542111 41.965699 
L 130.271629 41.965699 
z
" clip-path="url(#pd9e2ace9ff)" style="fill: #14663a"/>
   </g>
   <g id="patch_16">
    <path d="M 135.01661 270.135937 
L 139.287092 270.135937 
L 139.287092 50.114636 
L 135.01661 50.114636 
z
" clip-path="url(#pd9e2ace9ff)" style="fill: #14663a"/>
   </g>
   <g id="patch_17">
    <path d="M 139.76159 270.135937 
L 144.032073 270.135937 
L 144.032073 52.209032 
L 139.76159 52.209032 
z
" clip-path="url(#pd9e2ace9ff)" style="fill: #14663a"/>
   </g>
   <g id="patch_18">
    <path d="M 144.506571 270.135937 
L 148.777053 270.135937 
L 148.777053 52.830949 
L 144.506571 52.830949 
z
" clip-path="url(#pd9e2ace9ff)" style="fill: #14663a"/>
   </g>
   <g id="patch_19">
    <path d="M 149.251552 270.135937 
L 153.522034 270.135937 
L 153.522034 53.374211 
L 149.251552 53.374211 
z
" clip-path="url(#pd9e2ace9ff)" style="fill: #14663a"/>
   </g>
   <g id="patch_20">
    <path d="M 153.996532 270.135937 
L 158.267015 270.135937 
L 158.267015 55.003999 
L 153.996532 55.003999 
z
" clip-path="url(#pd9e2ace9ff)" style="fill: #14663a"/>
   </g>
   <g id="patch_21">
    <path d="M 158.741513 270.135937 
L 163.011995 270.135937 
L 163.011995 60.979886 
L 158.741513 60.979886 
z
" clip-path="url(#pd9e2ace9ff)" style="fill: #14663a"/>
   </g>
   <g id="patch_22">
    <path d="M 163.486494 270.135937 
L 167.756976 270.135937 
L 167.756976 68.283748 
L 163.486494 68.283748 
z
" clip-path="url(#pd9e2ace9ff)" style="fill: #14663a"/>
   </g>
   <g id="patch_23">
    <path d="M 168.231474 270.135937 
L 172.501957 270.135937 
L 172.501957 75.667126 
L 168.231474 75.667126 
z
" clip-path="url(#pd9e2ace9ff)" style="fill: #14663a"/>
   </g>
   <g id="patch_24">
    <path d="M 172.976455 270.135937 
L 177.246937 270.135937 
L 177.246937 76.191235 
L 172.976455 76.191235 
z
" clip-path="url(#pd9e2ace9ff)" style="fill: #14663a"/>
   </g>
   <g id="patch_25">
    <path d="M 177.721436 270.135937 
L 181.991918 270.135937 
L 181.991918 77.27776 
L 177.721436 77.27776 
z
" clip-path="url(#pd9e2ace9ff)" style="fill: #14663a"/>
   </g>
   <g id="patch_26">
    <path d="M 182.466416 270.135937 
L 186.736899 270.135937 
L 186.736899 77.458848 
L 182.466416 77.458848 
z
" clip-path="url(#pd9e2ace9ff)" style="fill: #14663a"/>
   </g>
   <g id="patch_27">
    <path d="M 187.211397 270.135937 
L 191.48188 270.135937 
L 191.48188 79.217983 
L 187.211397 79.217983 
z
" clip-path="url(#pd9e2ace9ff)" style="fill: #14663a"/>
   </g>
   <g id="patch_28">
    <path d="M 191.956378 270.135937 
L 196.22686 270.135937 
L 196.22686 87.599747 
L 191.956378 87.599747 
z
" clip-path="url(#pd9e2ace9ff)" style="fill: #14663a"/>
   </g>
   <g id="patch_29">
    <path d="M 196.701358 270.135937 
L 200.971841 270.135937 
L 200.971841 87.599747 
L 196.701358 87.599747 
z
" clip-path="url(#pd9e2ace9ff)" style="fill: #14663a"/>
   </g>
   <g id="patch_30">
    <path d="M 201.446339 270.135937 
L 205.716822 270.135937 
L 205.716822 88.636884 
L 201.446339 88.636884 
z
" clip-path="url(#pd9e2ace9ff)" style="fill: #14663a"/>
   </g>
   <g id="patch_31">
    <path d="M 206.19132 270.135937 
L 210.461802 270.135937 
L 210.461802 96.895572 
L 206.19132 96.895572 
z
" clip-path="url(#pd9e2ace9ff)" style="fill: #14663a"/>
   </g>
   <g id="patch_32">
    <path d="M 210.9363 270.135937 
L 215.206783 270.135937 
L 215.206783 98.834809 
L 210.9363 98.834809 
z
" clip-path="url(#pd9e2ace9ff)" style="fill: #14663a"/>
   </g>
   <g id="patch_33">
    <path d="M 215.681281 270.135937 
L 219.951764 270.135937 
L 219.951764 99.008259 
L 215.681281 99.008259 
z
" clip-path="url(#pd9e2ace9ff)" style="fill: #14663a"/>
   </g>
   <g id="patch_34">
    <path d="M 220.426262 270.135937 
L 224.696744 270.135937 
L 224.696744 100.275871 
L 220.426262 100.275871 
z
" clip-path="url(#pd9e2ace9ff)" style="fill: #14663a"/>
   </g>
   <g id="patch_35">
    <path d="M 225.171242 270.135937 
L 229.441725 270.135937 
L 229.441725 106.785035 
L 225.171242 106.785035 
z
" clip-path="url(#pd9e2ace9ff)" style="fill: #14663a"/>
   </g>
   <g id="patch_36">
    <path d="M 229.916223 270.135937 
L 234.186706 270.135937 
L 234.186706 106.83763 
L 229.916223 106.83763 
z
" clip-path="url(#pd9e2ace9ff)" style="fill: #14663a"/>
   </g>
   <g id="patch_37">
    <path d="M 234.661204 270.135937 
L 238.931686 270.135937 
L 238.931686 110.993232 
L 234.661204 110.993232 
z
" clip-path="url(#pd9e2ace9ff)" style="fill: #14663a"/>
   </g>
   <g id="patch_38">
    <path d="M 239.406184 270.135937 
L 243.676667 270.135937 
L 243.676667 113.268899 
L 239.406184 113.268899 
z
" clip-path="url(#pd9e2ace9ff)" style="fill: #14663a"/>
   </g>
   <g id="patch_39">
    <path d="M 244.151165 270.135937 
L 248.421648 270.135937 
L 248.421648 116.524479 
L 244.151165 116.524479 
z
" clip-path="url(#pd9e2ace9ff)" style="fill: #14663a"/>
   </g>
   <g id="patch_40">
    <path d="M 248.896146 270.135937 
L 253.166628 270.135937 
L 253.166628 117.634401 
L 248.896146 117.634401 
z
" clip-path="url(#pd9e2ace9ff)" style="fill: #14663a"/>
   </g>
   <g id="patch_41">
    <path d="M 253.641126 270.135937 
L 257.911609 270.135937 
L 257.911609 118.022445 
L 253.641126 118.022445 
z
" clip-path="url(#pd9e2ace9ff)" style="fill: #14663a"/>
   </g>
   <g id="patch_42">
    <path d="M 258.386107 270.135937 
L 262.65659 270.135937 
L 262.65659 118.022445 
L 258.386107 118.022445 
z
" clip-path="url(#pd9e2ace9ff)" style="fill: #14663a"/>
   </g>
   <g id="patch_43">
    <path d="M 263.131088 270.135937 
L 267.40157 270.135937 
L 267.40157 118.022445 
L 263.131088 118.022445 
z
" clip-path="url(#pd9e2ace9ff)" style="fill: #14663a"/>
   </g>
   <g id="patch_44">
    <path d="M 267.876068 270.135937 
L 272.146551 270.135937 
L 272.146551 118.022445 
L 267.876068 118.022445 
z
" clip-path="url(#pd9e2ace9ff)" style="fill: #14663a"/>
   </g>
   <g id="patch_45">
    <path d="M 272.621049 270.135937 
L 276.891532 270.135937 
L 276.891532 118.022445 
L 272.621049 118.022445 
z
" clip-path="url(#pd9e2ace9ff)" style="fill: #14663a"/>
   </g>
   <g id="patch_46">
    <path d="M 277.36603 270.135937 
L 281.636512 270.135937 
L 281.636512 118.022445 
L 277.36603 118.022445 
z
" clip-path="url(#pd9e2ace9ff)" style="fill: #14663a"/>
   </g>
   <g id="patch_47">
    <path d="M 282.11101 270.135937 
L 286.381493 270.135937 
L 286.381493 120.984921 
L 282.11101 120.984921 
z
" clip-path="url(#pd9e2ace9ff)" style="fill: #c0392b"/>
   </g>
   <g id="patch_48">
    <path d="M 286.855991 270.135937 
L 291.126474 270.135937 
L 291.126474 124.14236 
L 286.855991 124.14236 
z
" clip-path="url(#pd9e2ace9ff)" style="fill: #c0392b"/>
   </g>
   <g id="patch_49">
    <path d="M 291.600972 270.135937 
L 295.871454 270.135937 
L 295.871454 124.484783 
L 291.600972 124.484783 
z
" clip-path="url(#pd9e2ace9ff)" style="fill: #c0392b"/>
   </g>
   <g id="patch_50">
    <path d="M 296.345952 270.135937 
L 300.616435 270.135937 
L 300.616435 127.566699 
L 296.345952 127.566699 
z
" clip-path="url(#pd9e2ace9ff)" style="fill: #c0392b"/>
   </g>
   <g id="patch_51">
    <path d="M 301.090933 270.135937 
L 305.361416 270.135937 
L 305.361416 129.482477 
L 301.090933 129.482477 
z
" clip-path="url(#pd9e2ace9ff)" style="fill: #c0392b"/>
   </g>
   <g id="patch_52">
    <path d="M 305.835914 270.135937 
L 310.106396 270.135937 
L 310.106396 138.098219 
L 305.835914 138.098219 
z
" clip-path="url(#pd9e2ace9ff)" style="fill: #c0392b"/>
   </g>
   <g id="patch_53">
    <path d="M 310.580894 270.135937 
L 314.851377 270.135937 
L 314.851377 143.664434 
L 310.580894 143.664434 
z
" clip-path="url(#pd9e2ace9ff)" style="fill: #c0392b"/>
   </g>
   <g id="patch_54">
    <path d="M 315.325875 270.135937 
L 319.596358 270.135937 
L 319.596358 156.050818 
L 315.325875 156.050818 
z
" clip-path="url(#pd9e2ace9ff)" style="fill: #c0392b"/>
   </g>
   <g id="patch_55">
    <path d="M 320.070856 270.135937 
L 324.341338 270.135937 
L 324.341338 156.050818 
L 320.070856 156.050818 
z
" clip-path="url(#pd9e2ace9ff)" style="fill: #c0392b"/>
   </g>
   <g id="patch_56">
    <path d="M 324.815836 270.135937 
L 329.086319 270.135937 
L 329.086319 156.050818 
L 324.815836 156.050818 
z
" clip-path="url(#pd9e2ace9ff)" style="fill: #c0392b"/>
   </g>
   <g id="patch_57">
    <path d="M 329.560817 270.135937 
L 333.8313 270.135937 
L 333.8313 158.096042 
L 329.560817 158.096042 
z
" clip-path="url(#pd9e2ace9ff)" style="fill: #c0392b"/>
   </g>
   <g id="patch_58">
    <path d="M 334.305798 270.135937 
L 338.57628 270.135937 
L 338.57628 173.124782 
L 334.305798 173.124782 
z
" clip-path="url(#pd9e2ace9ff)" style="fill: #c0392b"/>
   </g>
   <g id="patch_59">
    <path d="M 339.050778 270.135937 
L 343.321261 270.135937 
L 343.321261 174.378326 
L 339.050778 174.378326 
z
" clip-path="url(#pd9e2ace9ff)" style="fill: #c0392b"/>
   </g>
   <g id="patch_60">
    <path d="M 343.795759 270.135937 
L 348.066242 270.135937 
L 348.066242 175.765528 
L 343.795759 175.765528 
z
" clip-path="url(#pd9e2ace9ff)" style="fill: #c0392b"/>
   </g>
   <g id="patch_61">
    <path d="M 348.54074 270.135937 
L 352.811222 270.135937 
L 352.811222 182.145843 
L 348.54074 182.145843 
z
" clip-path="url(#pd9e2ace9ff)" style="fill: #c0392b"/>
   </g>
   <g id="patch_62">
    <path d="M 353.28572 270.135937 
L 357.556203 270.135937 
L 357.556203 183.337415 
L 353.28572 183.337415 
z
" clip-path="url(#pd9e2ace9ff)" style="fill: #c0392b"/>
   </g>
   <g id="patch_63">
    <path d="M 358.030701 270.135937 
L 362.301184 270.135937 
L 362.301184 193.64426 
L 358.030701 193.64426 
z
" clip-path="url(#pd9e2ace9ff)" style="fill: #c0392b"/>
   </g>
   <g id="patch_64">
    <path d="M 362.775682 270.135937 
L 367.046164 270.135937 
L 367.046164 204.865 
L 362.775682 204.865 
z
" clip-path="url(#pd9e2ace9ff)" style="fill: #c0392b"/>
   </g>
   <g id="patch_65">
    <path d="M 367.520662 270.135937 
L 371.791145 270.135937 
L 371.791145 204.944441 
L 367.520662 204.944441 
z
" clip-path="url(#pd9e2ace9ff)" style="fill: #c0392b"/>
   </g>
   <g id="patch_66">
    <path d="M 372.265643 270.135937 
L 376.536126 270.135937 
L 376.536126 212.91229 
L 372.265643 212.91229 
z
" clip-path="url(#pd9e2ace9ff)" style="fill: #c0392b"/>
   </g>
   <g id="patch_67">
    <path d="M 377.010624 270.135937 
L 381.281106 270.135937 
L 381.281106 213.093378 
L 377.010624 213.093378 
z
" clip-path="url(#pd9e2ace9ff)" style="fill: #c0392b"/>
   </g>
   <g id="patch_68">
    <path d="M 381.755604 270.135937 
L 386.026087 270.135937 
L 386.026087 216.495917 
L 381.755604 216.495917 
z
" clip-path="url(#pd9e2ace9ff)" style="fill: #c0392b"/>
   </g>
   <g id="patch_69">
    <path d="M 386.500585 270.135937 
L 390.771068 270.135937 
L 390.771068 225.316784 
L 386.500585 225.316784 
z
" clip-path="url(#pd9e2ace9ff)" style="fill: #c0392b"/>
   </g>
   <g id="patch_70">
    <path d="M 391.245566 270.135937 
L 395.516048 270.135937 
L 395.516048 232.650827 
L 391.245566 232.650827 
z
" clip-path="url(#pd9e2ace9ff)" style="fill: #c0392b"/>
   </g>
   <g id="patch_71">
    <path d="M 395.990546 270.135937 
L 400.261029 270.135937 
L 400.261029 240.573675 
L 395.990546 240.573675 
z
" clip-path="url(#pd9e2ace9ff)" style="fill: #c0392b"/>
   </g>
   <g id="patch_72">
    <path d="M 400.735527 270.135937 
L 405.00601 270.135937 
L 405.00601 240.8224 
L 400.735527 240.8224 
z
" clip-path="url(#pd9e2ace9ff)" style="fill: #c0392b"/>
   </g>
   <g id="patch_73">
    <path d="M 405.480508 270.135937 
L 409.75099 270.135937 
L 409.75099 241.614658 
L 405.480508 241.614658 
z
" clip-path="url(#pd9e2ace9ff)" style="fill: #c0392b"/>
   </g>
   <g id="patch_74">
    <path d="M 410.225488 270.135937 
L 414.495971 270.135937 
L 414.495971 252.584381 
L 410.225488 252.584381 
z
" clip-path="url(#pd9e2ace9ff)" style="fill: #c0392b"/>
   </g>
   <g id="patch_75">
    <path d="M 414.970469 270.135937 
L 419.240952 270.135937 
L 419.240952 270.135937 
L 414.970469 270.135937 
z
" clip-path="url(#pd9e2ace9ff)" style="fill: #c0392b"/>
   </g>
   <g id="line2d_13">
    <path d="M 56.036406 119.674945 
L 436.536406 119.674945 
" clip-path="url(#pd9e2ace9ff)" style="fill: none; stroke-dasharray: 8.88,3.84; stroke-dashoffset: 0; stroke: #6c3483; stroke-width: 2.4"/>
   </g>
   <g id="patch_76">
    <path d="M 56.036406 270.135937 
L 56.036406 30.557187 
" style="fill: none; stroke: #7b8794; stroke-width: 1.2; stroke-linejoin: miter; stroke-linecap: square"/>
   </g>
   <g id="patch_77">
    <path d="M 56.036406 270.135937 
L 436.536406 270.135937 
" style="fill: none; stroke: #7b8794; stroke-width: 1.2; stroke-linejoin: miter; stroke-linecap: square"/>
   </g>
   <g id="text_9">
    <!-- 13 classes score exactly 1.000 -->
    <g style="fill: #4b5563" transform="translate(56.036406 24.557187) scale(0.19 -0.19)">
     <defs>
      <path id="SourceSans3-Regular-78" d="M 90 0 
L 1107 1626 
L 166 3110 
L 736 3110 
L 1152 2426 
Q 1222 2304 1302 2173 
Q 1382 2042 1459 1907 
L 1485 1907 
Q 1555 2042 1625 2173 
Q 1696 2304 1766 2426 
L 2144 3110 
L 2694 3110 
L 1754 1568 
L 2765 0 
L 2195 0 
L 1741 723 
Q 1658 864 1571 1005 
Q 1485 1146 1402 1280 
L 1376 1280 
Q 1293 1146 1216 1008 
Q 1139 870 1062 723 
L 640 0 
L 90 0 
z
" transform="scale(0.015625)"/>
      <path id="SourceSans3-Regular-79" d="M 576 -1338 
Q 474 -1338 381 -1318 
Q 288 -1299 211 -1274 
L 326 -864 
Q 384 -883 441 -892 
Q 499 -902 550 -902 
Q 819 -902 988 -713 
Q 1158 -525 1254 -237 
L 1325 -6 
L 77 3110 
L 621 3110 
L 1254 1389 
Q 1331 1190 1408 960 
Q 1485 730 1555 512 
L 1581 512 
Q 1651 730 1718 957 
Q 1786 1184 1843 1389 
L 2400 3110 
L 2912 3110 
L 1741 -256 
Q 1632 -563 1478 -809 
Q 1325 -1056 1107 -1197 
Q 890 -1338 576 -1338 
z
" transform="scale(0.015625)"/>
     </defs>
     <use xlink:href="#SourceSans3-Regular-31"/>
     <use xlink:href="#SourceSans3-Regular-33" transform="translate(49.699997 0)"/>
     <use xlink:href="#SourceSans3-Regular-20" transform="translate(99.399994 0)"/>
     <use xlink:href="#SourceSans3-Regular-63" transform="translate(119.399979 0)"/>
     <use xlink:href="#SourceSans3-Regular-6c" transform="translate(164.999969 0)"/>
     <use xlink:href="#SourceSans3-Regular-61" transform="translate(190.499954 0)"/>
     <use xlink:href="#SourceSans3-Regular-73" transform="translate(240.899948 0)"/>
     <use xlink:href="#SourceSans3-Regular-73" transform="translate(282.799942 0)"/>
     <use xlink:href="#SourceSans3-Regular-65" transform="translate(324.699936 0)"/>
     <use xlink:href="#SourceSans3-Regular-73" transform="translate(374.299927 0)"/>
     <use xlink:href="#SourceSans3-Regular-20" transform="translate(416.199921 0)"/>
     <use xlink:href="#SourceSans3-Regular-73" transform="translate(436.199905 0)"/>
     <use xlink:href="#SourceSans3-Regular-63" transform="translate(478.099899 0)"/>
     <use xlink:href="#SourceSans3-Regular-6f" transform="translate(523.69989 0)"/>
     <use xlink:href="#SourceSans3-Regular-72" transform="translate(577.899887 0)"/>
     <use xlink:href="#SourceSans3-Regular-65" transform="translate(612.599884 0)"/>
     <use xlink:href="#SourceSans3-Regular-20" transform="translate(662.199875 0)"/>
     <use xlink:href="#SourceSans3-Regular-65" transform="translate(682.19986 0)"/>
     <use xlink:href="#SourceSans3-Regular-78" transform="translate(731.79985 0)"/>
     <use xlink:href="#SourceSans3-Regular-61" transform="translate(776.399841 0)"/>
     <use xlink:href="#SourceSans3-Regular-63" transform="translate(826.799835 0)"/>
     <use xlink:href="#SourceSans3-Regular-74" transform="translate(872.399826 0)"/>
     <use xlink:href="#SourceSans3-Regular-6c" transform="translate(906.199814 0)"/>
     <use xlink:href="#SourceSans3-Regular-79" transform="translate(931.699799 0)"/>
     <use xlink:href="#SourceSans3-Regular-20" transform="translate(978.399796 0)"/>
     <use xlink:href="#SourceSans3-Regular-31" transform="translate(998.39978 0)"/>
     <use xlink:href="#SourceSans3-Regular-2e" transform="translate(1048.099777 0)"/>
     <use xlink:href="#SourceSans3-Regular-30" transform="translate(1072.999771 0)"/>
     <use xlink:href="#SourceSans3-Regular-30" transform="translate(1122.699768 0)"/>
     <use xlink:href="#SourceSans3-Regular-30" transform="translate(1172.399765 0)"/>
    </g>
   </g>
   <g id="legend_1">
    <g id="line2d_14">
     <path d="M 266.145781 49.487656 
L 281.145781 49.487656 
L 296.145781 49.487656 
" style="fill: none; stroke-dasharray: 8.88,3.84; stroke-dashoffset: 0; stroke: #6c3483; stroke-width: 2.4"/>
    </g>
    <g id="text_10">
     <!-- mAP@0.50 = 0.659 -->
     <g transform="translate(308.145781 54.737656) scale(0.15 -0.15)">
      <defs>
       <path id="SourceSans3-Regular-6d" d="M 525 0 
L 525 3110 
L 960 3110 
L 1005 2662 
L 1024 2662 
Q 1229 2880 1469 3033 
Q 1709 3187 1990 3187 
Q 2349 3187 2550 3027 
Q 2752 2867 2848 2592 
Q 3091 2861 3340 3024 
Q 3590 3187 3872 3187 
Q 4358 3187 4588 2876 
Q 4819 2566 4819 1971 
L 4819 0 
L 4294 0 
L 4294 1901 
Q 4294 2342 4153 2537 
Q 4013 2733 3718 2733 
Q 3533 2733 3344 2614 
Q 3155 2496 2938 2253 
L 2938 0 
L 2413 0 
L 2413 1901 
Q 2413 2342 2272 2537 
Q 2131 2733 1830 2733 
Q 1478 2733 1050 2253 
L 1050 0 
L 525 0 
z
" transform="scale(0.015625)"/>
       <path id="SourceSans3-Regular-40" d="M 2579 -992 
Q 2112 -992 1702 -845 
Q 1293 -698 982 -406 
Q 672 -115 499 313 
Q 326 742 326 1299 
Q 326 1946 537 2467 
Q 749 2989 1120 3363 
Q 1491 3738 1974 3936 
Q 2458 4134 2995 4134 
Q 3642 4134 4112 3868 
Q 4582 3603 4841 3126 
Q 5101 2650 5101 2016 
Q 5101 1594 4985 1270 
Q 4870 947 4681 732 
Q 4493 518 4265 409 
Q 4038 301 3821 301 
Q 3552 301 3369 425 
Q 3187 550 3155 800 
L 3142 800 
Q 2989 602 2781 474 
Q 2573 346 2362 346 
Q 2029 346 1801 586 
Q 1574 826 1574 1267 
Q 1574 1530 1660 1792 
Q 1747 2054 1913 2275 
Q 2080 2496 2310 2630 
Q 2541 2765 2822 2765 
Q 2989 2765 3117 2688 
Q 3245 2611 3334 2445 
L 3347 2445 
L 3418 2707 
L 3770 2707 
L 3520 1421 
Q 3437 1037 3523 861 
Q 3610 685 3859 685 
Q 4058 685 4243 841 
Q 4429 998 4553 1292 
Q 4678 1587 4678 1997 
Q 4678 2368 4569 2685 
Q 4461 3002 4240 3235 
Q 4019 3469 3699 3600 
Q 3379 3731 2950 3731 
Q 2534 3731 2144 3561 
Q 1754 3392 1440 3075 
Q 1126 2758 944 2313 
Q 762 1869 762 1318 
Q 762 864 899 509 
Q 1037 154 1289 -89 
Q 1542 -333 1881 -461 
Q 2221 -589 2618 -589 
Q 2906 -589 3165 -515 
Q 3424 -442 3642 -326 
L 3795 -666 
Q 3514 -826 3213 -909 
Q 2912 -992 2579 -992 
z
M 2464 736 
Q 2598 736 2745 825 
Q 2893 915 3053 1107 
L 3238 2118 
Q 3149 2259 3049 2316 
Q 2950 2374 2829 2374 
Q 2579 2374 2403 2204 
Q 2227 2035 2128 1788 
Q 2029 1542 2029 1299 
Q 2029 998 2153 867 
Q 2278 736 2464 736 
z
" transform="scale(0.015625)"/>
       <path id="SourceSans3-Regular-3d" d="M 218 2599 
L 218 2995 
L 2963 2995 
L 2963 2599 
L 218 2599 
z
M 218 1229 
L 218 1625 
L 2963 1625 
L 2963 1229 
L 218 1229 
z
" transform="scale(0.015625)"/>
       <path id="SourceSans3-Regular-39" d="M 1312 -77 
Q 986 -77 742 48 
Q 499 173 326 352 
L 621 685 
Q 749 538 925 448 
Q 1101 358 1293 358 
Q 1587 358 1830 534 
Q 2074 710 2224 1110 
Q 2374 1510 2374 2195 
Q 2374 2701 2265 3043 
Q 2157 3386 1955 3565 
Q 1754 3744 1459 3744 
Q 1261 3744 1101 3632 
Q 941 3520 845 3318 
Q 749 3117 749 2848 
Q 749 2586 835 2390 
Q 922 2195 1088 2089 
Q 1254 1984 1504 1984 
Q 1702 1984 1939 2115 
Q 2176 2246 2381 2560 
L 2400 2144 
Q 2214 1888 1945 1737 
Q 1677 1587 1414 1587 
Q 1062 1587 800 1728 
Q 538 1869 397 2150 
Q 256 2432 256 2848 
Q 256 3238 419 3536 
Q 582 3834 857 3997 
Q 1133 4160 1459 4160 
Q 1760 4160 2019 4038 
Q 2278 3917 2467 3670 
Q 2656 3424 2761 3056 
Q 2867 2688 2867 2195 
Q 2867 1581 2739 1145 
Q 2611 710 2393 441 
Q 2176 173 1897 48 
Q 1619 -77 1312 -77 
z
" transform="scale(0.015625)"/>
      </defs>
      <use xlink:href="#SourceSans3-Regular-6d"/>
      <use xlink:href="#SourceSans3-Regular-41" transform="translate(82.899994 0)"/>
      <use xlink:href="#SourceSans3-Regular-50" transform="translate(137.199982 0)"/>
      <use xlink:href="#SourceSans3-Regular-40" transform="translate(193.799973 0)"/>
      <use xlink:href="#SourceSans3-Regular-30" transform="translate(278.499954 0)"/>
      <use xlink:href="#SourceSans3-Regular-2e" transform="translate(328.199951 0)"/>
      <use xlink:href="#SourceSans3-Regular-35" transform="translate(353.099945 0)"/>
      <use xlink:href="#SourceSans3-Regular-30" transform="translate(402.799942 0)"/>
      <use xlink:href="#SourceSans3-Regular-20" transform="translate(452.499939 0)"/>
      <use xlink:href="#SourceSans3-Regular-3d" transform="translate(472.499924 0)"/>
      <use xlink:href="#SourceSans3-Regular-20" transform="translate(522.199921 0)"/>
      <use xlink:href="#SourceSans3-Regular-30" transform="translate(542.199905 0)"/>
      <use xlink:href="#SourceSans3-Regular-2e" transform="translate(591.899902 0)"/>
      <use xlink:href="#SourceSans3-Regular-36" transform="translate(616.799896 0)"/>
      <use xlink:href="#SourceSans3-Regular-35" transform="translate(666.499893 0)"/>
      <use xlink:href="#SourceSans3-Regular-39" transform="translate(716.19989 0)"/>
     </g>
    </g>
   </g>
  </g>
  <g id="axes_2">
   <g id="patch_78">
    <path d="M 500.456406 270.135937 
L 880.956406 270.135937 
L 880.956406 30.557187 
L 500.456406 30.557187 
z
" style="fill: #ffffff"/>
   </g>
   <g id="matplotlib.axis_3">
    <g id="xtick_1">
     <g id="line2d_15">
      <path d="M 517.751861 270.135937 
L 517.751861 30.557187 
" clip-path="url(#pd3b6080981)" style="fill: none; stroke: #b0bcc7; stroke-width: 0.9; stroke-linecap: square"/>
     </g>
     <g id="line2d_16">
      <defs>
       <path id="m7b8a0b1d1f" d="M 0 0 
L 0 3.5 
" style="stroke: #33414d; stroke-width: 0.8"/>
      </defs>
      <g>
       <use xlink:href="#m7b8a0b1d1f" x="517.751861" y="270.135937" style="fill: #33414d; stroke: #33414d; stroke-width: 0.8"/>
      </g>
     </g>
     <g id="text_11">
      <!-- 1 -->
      <g style="fill: #33414d" transform="translate(514.024126 287.816406) scale(0.15 -0.15)">
       <use xlink:href="#SourceSans3-Regular-31"/>
      </g>
     </g>
    </g>
    <g id="xtick_2">
     <g id="line2d_17">
      <path d="M 653.718779 270.135937 
L 653.718779 30.557187 
" clip-path="url(#pd3b6080981)" style="fill: none; stroke: #b0bcc7; stroke-width: 0.9; stroke-linecap: square"/>
     </g>
     <g id="line2d_18">
      <g>
       <use xlink:href="#m7b8a0b1d1f" x="653.718779" y="270.135937" style="fill: #33414d; stroke: #33414d; stroke-width: 0.8"/>
      </g>
     </g>
     <g id="text_12">
      <!-- 10 -->
      <g style="fill: #33414d" transform="translate(646.26331 287.816406) scale(0.15 -0.15)">
       <use xlink:href="#SourceSans3-Regular-31"/>
       <use xlink:href="#SourceSans3-Regular-30" transform="translate(49.699997 0)"/>
      </g>
     </g>
    </g>
    <g id="xtick_3">
     <g id="line2d_19">
      <path d="M 789.685697 270.135937 
L 789.685697 30.557187 
" clip-path="url(#pd3b6080981)" style="fill: none; stroke: #b0bcc7; stroke-width: 0.9; stroke-linecap: square"/>
     </g>
     <g id="line2d_20">
      <g>
       <use xlink:href="#m7b8a0b1d1f" x="789.685697" y="270.135937" style="fill: #33414d; stroke: #33414d; stroke-width: 0.8"/>
      </g>
     </g>
     <g id="text_13">
      <!-- 100 -->
      <g style="fill: #33414d" transform="translate(778.502493 287.816406) scale(0.15 -0.15)">
       <use xlink:href="#SourceSans3-Regular-31"/>
       <use xlink:href="#SourceSans3-Regular-30" transform="translate(49.699997 0)"/>
       <use xlink:href="#SourceSans3-Regular-30" transform="translate(99.399994 0)"/>
      </g>
     </g>
    </g>
    <g id="xtick_4">
     <g id="line2d_21">
      <defs>
       <path id="md192ad94f4" d="M 0 0 
L 0 2 
" style="stroke: #33414d; stroke-width: 0.6"/>
      </defs>
      <g>
       <use xlink:href="#md192ad94f4" x="504.575305" y="270.135937" style="fill: #33414d; stroke: #33414d; stroke-width: 0.6"/>
      </g>
     </g>
    </g>
    <g id="xtick_5">
     <g id="line2d_22">
      <g>
       <use xlink:href="#md192ad94f4" x="511.530356" y="270.135937" style="fill: #33414d; stroke: #33414d; stroke-width: 0.6"/>
      </g>
     </g>
    </g>
    <g id="xtick_6">
     <g id="line2d_23">
      <g>
       <use xlink:href="#md192ad94f4" x="558.681982" y="270.135937" style="fill: #33414d; stroke: #33414d; stroke-width: 0.6"/>
      </g>
     </g>
    </g>
    <g id="xtick_7">
     <g id="line2d_24">
      <g>
       <use xlink:href="#md192ad94f4" x="582.624567" y="270.135937" style="fill: #33414d; stroke: #33414d; stroke-width: 0.6"/>
      </g>
     </g>
    </g>
    <g id="xtick_8">
     <g id="line2d_25">
      <g>
       <use xlink:href="#md192ad94f4" x="599.612102" y="270.135937" style="fill: #33414d; stroke: #33414d; stroke-width: 0.6"/>
      </g>
     </g>
    </g>
    <g id="xtick_9">
     <g id="line2d_26">
      <g>
       <use xlink:href="#md192ad94f4" x="612.788658" y="270.135937" style="fill: #33414d; stroke: #33414d; stroke-width: 0.6"/>
      </g>
     </g>
    </g>
    <g id="xtick_10">
     <g id="line2d_27">
      <g>
       <use xlink:href="#md192ad94f4" x="623.554688" y="270.135937" style="fill: #33414d; stroke: #33414d; stroke-width: 0.6"/>
      </g>
     </g>
    </g>
    <g id="xtick_11">
     <g id="line2d_28">
      <g>
       <use xlink:href="#md192ad94f4" x="632.657237" y="270.135937" style="fill: #33414d; stroke: #33414d; stroke-width: 0.6"/>
      </g>
     </g>
    </g>
    <g id="xtick_12">
     <g id="line2d_29">
      <g>
       <use xlink:href="#md192ad94f4" x="640.542223" y="270.135937" style="fill: #33414d; stroke: #33414d; stroke-width: 0.6"/>
      </g>
     </g>
    </g>
    <g id="xtick_13">
     <g id="line2d_30">
      <g>
       <use xlink:href="#md192ad94f4" x="647.497274" y="270.135937" style="fill: #33414d; stroke: #33414d; stroke-width: 0.6"/>
      </g>
     </g>
    </g>
    <g id="xtick_14">
     <g id="line2d_31">
      <g>
       <use xlink:href="#md192ad94f4" x="694.648899" y="270.135937" style="fill: #33414d; stroke: #33414d; stroke-width: 0.6"/>
      </g>
     </g>
    </g>
    <g id="xtick_15">
     <g id="line2d_32">
      <g>
       <use xlink:href="#md192ad94f4" x="718.591485" y="270.135937" style="fill: #33414d; stroke: #33414d; stroke-width: 0.6"/>
      </g>
     </g>
    </g>
    <g id="xtick_16">
     <g id="line2d_33">
      <g>
       <use xlink:href="#md192ad94f4" x="735.57902" y="270.135937" style="fill: #33414d; stroke: #33414d; stroke-width: 0.6"/>
      </g>
     </g>
    </g>
    <g id="xtick_17">
     <g id="line2d_34">
      <g>
       <use xlink:href="#md192ad94f4" x="748.755576" y="270.135937" style="fill: #33414d; stroke: #33414d; stroke-width: 0.6"/>
      </g>
     </g>
    </g>
    <g id="xtick_18">
     <g id="line2d_35">
      <g>
       <use xlink:href="#md192ad94f4" x="759.521606" y="270.135937" style="fill: #33414d; stroke: #33414d; stroke-width: 0.6"/>
      </g>
     </g>
    </g>
    <g id="xtick_19">
     <g id="line2d_36">
      <g>
       <use xlink:href="#md192ad94f4" x="768.624155" y="270.135937" style="fill: #33414d; stroke: #33414d; stroke-width: 0.6"/>
      </g>
     </g>
    </g>
    <g id="xtick_20">
     <g id="line2d_37">
      <g>
       <use xlink:href="#md192ad94f4" x="776.509141" y="270.135937" style="fill: #33414d; stroke: #33414d; stroke-width: 0.6"/>
      </g>
     </g>
    </g>
    <g id="xtick_21">
     <g id="line2d_38">
      <g>
       <use xlink:href="#md192ad94f4" x="783.464192" y="270.135937" style="fill: #33414d; stroke: #33414d; stroke-width: 0.6"/>
      </g>
     </g>
    </g>
    <g id="xtick_22">
     <g id="line2d_39">
      <g>
       <use xlink:href="#md192ad94f4" x="830.615817" y="270.135937" style="fill: #33414d; stroke: #33414d; stroke-width: 0.6"/>
      </g>
     </g>
    </g>
    <g id="xtick_23">
     <g id="line2d_40">
      <g>
       <use xlink:href="#md192ad94f4" x="854.558403" y="270.135937" style="fill: #33414d; stroke: #33414d; stroke-width: 0.6"/>
      </g>
     </g>
    </g>
    <g id="xtick_24">
     <g id="line2d_41">
      <g>
       <use xlink:href="#md192ad94f4" x="871.545938" y="270.135937" style="fill: #33414d; stroke: #33414d; stroke-width: 0.6"/>
      </g>
     </g>
    </g>
    <g id="text_14">
     <!-- ground-truth instances of that class, in 128 images -->
     <g style="fill: #16212b" transform="translate(512.384375 307.200469) scale(0.17 -0.17)">
      <defs>
       <path id="SourceSans3-Regular-67" d="M 1574 -1434 
Q 1197 -1434 905 -1334 
Q 614 -1235 451 -1049 
Q 288 -864 288 -595 
Q 288 -397 409 -214 
Q 531 -32 742 109 
L 742 134 
Q 627 211 547 336 
Q 467 461 467 640 
Q 467 838 579 985 
Q 691 1133 806 1216 
L 806 1242 
Q 659 1370 531 1587 
Q 403 1805 403 2080 
Q 403 2419 566 2668 
Q 730 2918 995 3052 
Q 1261 3187 1574 3187 
Q 1702 3187 1817 3164 
Q 1933 3142 2016 3110 
L 3098 3110 
L 3098 2707 
L 2451 2707 
L 2451 2682 
Q 2566 2579 2640 2425 
Q 2714 2272 2714 2061 
Q 2714 1728 2560 1488 
Q 2406 1248 2150 1117 
Q 1894 986 1574 986 
Q 1459 986 1337 1014 
Q 1216 1043 1107 1094 
Q 1030 1024 969 941 
Q 909 858 909 723 
Q 909 576 1027 480 
Q 1146 384 1459 384 
L 2061 384 
Q 2605 384 2877 208 
Q 3149 32 3149 -358 
Q 3149 -646 2957 -889 
Q 2765 -1133 2409 -1283 
Q 2054 -1434 1574 -1434 
z
M 1574 1338 
Q 1754 1338 1904 1430 
Q 2054 1523 2144 1689 
Q 2234 1856 2234 2080 
Q 2234 2426 2042 2614 
Q 1850 2803 1574 2803 
Q 1299 2803 1107 2614 
Q 915 2426 915 2080 
Q 915 1856 1004 1689 
Q 1094 1523 1244 1430 
Q 1395 1338 1574 1338 
z
M 1651 -1069 
Q 1946 -1069 2166 -979 
Q 2387 -890 2512 -742 
Q 2637 -595 2637 -435 
Q 2637 -218 2473 -134 
Q 2310 -51 2010 -51 
L 1472 -51 
Q 1382 -51 1276 -38 
Q 1171 -26 1069 0 
Q 896 -122 822 -256 
Q 749 -390 749 -525 
Q 749 -774 989 -921 
Q 1229 -1069 1651 -1069 
z
" transform="scale(0.015625)"/>
       <path id="SourceSans3-Regular-75" d="M 1434 -77 
Q 941 -77 713 233 
Q 486 544 486 1139 
L 486 3110 
L 1011 3110 
L 1011 1210 
Q 1011 774 1148 579 
Q 1286 384 1594 384 
Q 1830 384 2019 509 
Q 2208 634 2432 902 
L 2432 3110 
L 2957 3110 
L 2957 0 
L 2522 0 
L 2477 486 
L 2458 486 
Q 2246 230 2000 76 
Q 1754 -77 1434 -77 
z
" transform="scale(0.015625)"/>
       <path id="SourceSans3-Regular-64" d="M 1587 -77 
Q 998 -77 649 348 
Q 301 774 301 1549 
Q 301 2054 489 2422 
Q 678 2790 985 2988 
Q 1293 3187 1651 3187 
Q 1926 3187 2121 3094 
Q 2317 3002 2522 2829 
L 2496 3360 
L 2496 4557 
L 3027 4557 
L 3027 0 
L 2592 0 
L 2547 365 
L 2528 365 
Q 2349 186 2105 54 
Q 1862 -77 1587 -77 
z
M 1702 365 
Q 1920 365 2112 473 
Q 2304 582 2496 794 
L 2496 2419 
Q 2304 2598 2118 2672 
Q 1933 2746 1741 2746 
Q 1491 2746 1289 2595 
Q 1088 2445 966 2179 
Q 845 1914 845 1555 
Q 845 998 1069 681 
Q 1293 365 1702 365 
z
" transform="scale(0.015625)"/>
       <path id="SourceSans3-Regular-2d" d="M 262 1402 
L 262 1805 
L 1734 1805 
L 1734 1402 
L 262 1402 
z
" transform="scale(0.015625)"/>
       <path id="SourceSans3-Regular-68" d="M 525 0 
L 525 4557 
L 1050 4557 
L 1050 3315 
L 1030 2675 
Q 1254 2886 1500 3036 
Q 1747 3187 2067 3187 
Q 2560 3187 2787 2876 
Q 3014 2566 3014 1971 
L 3014 0 
L 2490 0 
L 2490 1901 
Q 2490 2342 2352 2537 
Q 2214 2733 1901 2733 
Q 1664 2733 1475 2611 
Q 1286 2490 1050 2253 
L 1050 0 
L 525 0 
z
" transform="scale(0.015625)"/>
       <path id="SourceSans3-Regular-69" d="M 525 0 
L 525 3110 
L 1050 3110 
L 1050 0 
L 525 0 
z
M 787 3750 
Q 634 3750 534 3846 
Q 435 3942 435 4096 
Q 435 4250 534 4346 
Q 634 4442 787 4442 
Q 941 4442 1040 4346 
Q 1139 4250 1139 4096 
Q 1139 3942 1040 3846 
Q 941 3750 787 3750 
z
" transform="scale(0.015625)"/>
       <path id="SourceSans3-Regular-66" d="M 614 0 
L 614 3603 
Q 614 3917 710 4150 
Q 806 4384 1008 4509 
Q 1210 4634 1523 4634 
Q 1664 4634 1801 4605 
Q 1939 4576 2042 4531 
L 1926 4147 
Q 1741 4205 1574 4205 
Q 1357 4205 1248 4054 
Q 1139 3904 1139 3603 
L 1139 0 
L 614 0 
z
M 154 2682 
L 154 3078 
L 640 3110 
L 1798 3110 
L 1798 2682 
L 154 2682 
z
" transform="scale(0.015625)"/>
      </defs>
      <use xlink:href="#SourceSans3-Regular-67"/>
      <use xlink:href="#SourceSans3-Regular-72" transform="translate(50.399994 0)"/>
      <use xlink:href="#SourceSans3-Regular-6f" transform="translate(85.099991 0)"/>
      <use xlink:href="#SourceSans3-Regular-75" transform="translate(139.299988 0)"/>
      <use xlink:href="#SourceSans3-Regular-6e" transform="translate(193.699982 0)"/>
      <use xlink:href="#SourceSans3-Regular-64" transform="translate(248.399979 0)"/>
      <use xlink:href="#SourceSans3-Regular-2d" transform="translate(303.899963 0)"/>
      <use xlink:href="#SourceSans3-Regular-74" transform="translate(334.999954 0)"/>
      <use xlink:href="#SourceSans3-Regular-72" transform="translate(368.799942 0)"/>
      <use xlink:href="#SourceSans3-Regular-75" transform="translate(403.499939 0)"/>
      <use xlink:href="#SourceSans3-Regular-74" transform="translate(457.899933 0)"/>
      <use xlink:href="#SourceSans3-Regular-68" transform="translate(491.699921 0)"/>
      <use xlink:href="#SourceSans3-Regular-20" transform="translate(546.099915 0)"/>
      <use xlink:href="#SourceSans3-Regular-69" transform="translate(566.099899 0)"/>
      <use xlink:href="#SourceSans3-Regular-6e" transform="translate(590.69989 0)"/>
      <use xlink:href="#SourceSans3-Regular-73" transform="translate(645.399887 0)"/>
      <use xlink:href="#SourceSans3-Regular-74" transform="translate(687.299881 0)"/>
      <use xlink:href="#SourceSans3-Regular-61" transform="translate(721.099869 0)"/>
      <use xlink:href="#SourceSans3-Regular-6e" transform="translate(771.499863 0)"/>
      <use xlink:href="#SourceSans3-Regular-63" transform="translate(826.19986 0)"/>
      <use xlink:href="#SourceSans3-Regular-65" transform="translate(871.79985 0)"/>
      <use xlink:href="#SourceSans3-Regular-73" transform="translate(921.399841 0)"/>
      <use xlink:href="#SourceSans3-Regular-20" transform="translate(963.299835 0)"/>
      <use xlink:href="#SourceSans3-Regular-6f" transform="translate(983.29982 0)"/>
      <use xlink:href="#SourceSans3-Regular-66" transform="translate(1037.499817 0)"/>
      <use xlink:href="#SourceSans3-Regular-20" transform="translate(1066.699814 0)"/>
      <use xlink:href="#SourceSans3-Regular-74" transform="translate(1086.699799 0)"/>
      <use xlink:href="#SourceSans3-Regular-68" transform="translate(1120.499786 0)"/>
      <use xlink:href="#SourceSans3-Regular-61" transform="translate(1174.89978 0)"/>
      <use xlink:href="#SourceSans3-Regular-74" transform="translate(1225.299774 0)"/>
      <use xlink:href="#SourceSans3-Regular-20" transform="translate(1259.099762 0)"/>
      <use xlink:href="#SourceSans3-Regular-63" transform="translate(1279.099747 0)"/>
      <use xlink:href="#SourceSans3-Regular-6c" transform="translate(1324.699738 0)"/>
      <use xlink:href="#SourceSans3-Regular-61" transform="translate(1350.199722 0)"/>
      <use xlink:href="#SourceSans3-Regular-73" transform="translate(1400.599716 0)"/>
      <use xlink:href="#SourceSans3-Regular-73" transform="translate(1442.49971 0)"/>
      <use xlink:href="#SourceSans3-Regular-2c" transform="translate(1484.399704 0)"/>
      <use xlink:href="#SourceSans3-Regular-20" transform="translate(1509.299698 0)"/>
      <use xlink:href="#SourceSans3-Regular-69" transform="translate(1529.299683 0)"/>
      <use xlink:href="#SourceSans3-Regular-6e" transform="translate(1553.899673 0)"/>
      <use xlink:href="#SourceSans3-Regular-20" transform="translate(1608.59967 0)"/>
      <use xlink:href="#SourceSans3-Regular-31" transform="translate(1628.599655 0)"/>
      <use xlink:href="#SourceSans3-Regular-32" transform="translate(1678.299652 0)"/>
      <use xlink:href="#SourceSans3-Regular-38" transform="translate(1727.999649 0)"/>
      <use xlink:href="#SourceSans3-Regular-20" transform="translate(1777.699646 0)"/>
      <use xlink:href="#SourceSans3-Regular-69" transform="translate(1797.699631 0)"/>
      <use xlink:href="#SourceSans3-Regular-6d" transform="translate(1822.299622 0)"/>
      <use xlink:href="#SourceSans3-Regular-61" transform="translate(1905.199615 0)"/>
      <use xlink:href="#SourceSans3-Regular-67" transform="translate(1955.599609 0)"/>
      <use xlink:href="#SourceSans3-Regular-65" transform="translate(2005.999603 0)"/>
      <use xlink:href="#SourceSans3-Regular-73" transform="translate(2055.599594 0)"/>
     </g>
    </g>
   </g>
   <g id="matplotlib.axis_4">
    <g id="ytick_7">
     <g id="line2d_42">
      <path d="M 500.456406 259.535108 
L 880.956406 259.535108 
" clip-path="url(#pd3b6080981)" style="fill: none; stroke: #b0bcc7; stroke-width: 0.9; stroke-linecap: square"/>
     </g>
     <g id="line2d_43">
      <g>
       <use xlink:href="#m759550dcb1" x="500.456406" y="259.535108" style="fill: #33414d; stroke: #33414d; stroke-width: 0.8"/>
      </g>
     </g>
     <g id="text_15">
      <!-- 0.0 -->
      <g style="fill: #33414d" transform="translate(474.809531 264.875342) scale(0.15 -0.15)">
       <use xlink:href="#SourceSans3-Regular-30"/>
       <use xlink:href="#SourceSans3-Regular-2e" transform="translate(49.699997 0)"/>
       <use xlink:href="#SourceSans3-Regular-30" transform="translate(74.599991 0)"/>
      </g>
     </g>
    </g>
    <g id="ytick_8">
     <g id="line2d_44">
      <path d="M 500.456406 217.131789 
L 880.956406 217.131789 
" clip-path="url(#pd3b6080981)" style="fill: none; stroke: #b0bcc7; stroke-width: 0.9; stroke-linecap: square"/>
     </g>
     <g id="line2d_45">
      <g>
       <use xlink:href="#m759550dcb1" x="500.456406" y="217.131789" style="fill: #33414d; stroke: #33414d; stroke-width: 0.8"/>
      </g>
     </g>
     <g id="text_16">
      <!-- 0.2 -->
      <g style="fill: #33414d" transform="translate(474.809531 222.472024) scale(0.15 -0.15)">
       <use xlink:href="#SourceSans3-Regular-30"/>
       <use xlink:href="#SourceSans3-Regular-2e" transform="translate(49.699997 0)"/>
       <use xlink:href="#SourceSans3-Regular-32" transform="translate(74.599991 0)"/>
      </g>
     </g>
    </g>
    <g id="ytick_9">
     <g id="line2d_46">
      <path d="M 500.456406 174.728471 
L 880.956406 174.728471 
" clip-path="url(#pd3b6080981)" style="fill: none; stroke: #b0bcc7; stroke-width: 0.9; stroke-linecap: square"/>
     </g>
     <g id="line2d_47">
      <g>
       <use xlink:href="#m759550dcb1" x="500.456406" y="174.728471" style="fill: #33414d; stroke: #33414d; stroke-width: 0.8"/>
      </g>
     </g>
     <g id="text_17">
      <!-- 0.4 -->
      <g style="fill: #33414d" transform="translate(474.809531 180.068705) scale(0.15 -0.15)">
       <use xlink:href="#SourceSans3-Regular-30"/>
       <use xlink:href="#SourceSans3-Regular-2e" transform="translate(49.699997 0)"/>
       <use xlink:href="#SourceSans3-Regular-34" transform="translate(74.599991 0)"/>
      </g>
     </g>
    </g>
    <g id="ytick_10">
     <g id="line2d_48">
      <path d="M 500.456406 132.325152 
L 880.956406 132.325152 
" clip-path="url(#pd3b6080981)" style="fill: none; stroke: #b0bcc7; stroke-width: 0.9; stroke-linecap: square"/>
     </g>
     <g id="line2d_49">
      <g>
       <use xlink:href="#m759550dcb1" x="500.456406" y="132.325152" style="fill: #33414d; stroke: #33414d; stroke-width: 0.8"/>
      </g>
     </g>
     <g id="text_18">
      <!-- 0.6 -->
      <g style="fill: #33414d" transform="translate(474.809531 137.665386) scale(0.15 -0.15)">
       <use xlink:href="#SourceSans3-Regular-30"/>
       <use xlink:href="#SourceSans3-Regular-2e" transform="translate(49.699997 0)"/>
       <use xlink:href="#SourceSans3-Regular-36" transform="translate(74.599991 0)"/>
      </g>
     </g>
    </g>
    <g id="ytick_11">
     <g id="line2d_50">
      <path d="M 500.456406 89.921834 
L 880.956406 89.921834 
" clip-path="url(#pd3b6080981)" style="fill: none; stroke: #b0bcc7; stroke-width: 0.9; stroke-linecap: square"/>
     </g>
     <g id="line2d_51">
      <g>
       <use xlink:href="#m759550dcb1" x="500.456406" y="89.921834" style="fill: #33414d; stroke: #33414d; stroke-width: 0.8"/>
      </g>
     </g>
     <g id="text_19">
      <!-- 0.8 -->
      <g style="fill: #33414d" transform="translate(474.809531 95.262068) scale(0.15 -0.15)">
       <use xlink:href="#SourceSans3-Regular-30"/>
       <use xlink:href="#SourceSans3-Regular-2e" transform="translate(49.699997 0)"/>
       <use xlink:href="#SourceSans3-Regular-38" transform="translate(74.599991 0)"/>
      </g>
     </g>
    </g>
    <g id="ytick_12">
     <g id="line2d_52">
      <path d="M 500.456406 47.518515 
L 880.956406 47.518515 
" clip-path="url(#pd3b6080981)" style="fill: none; stroke: #b0bcc7; stroke-width: 0.9; stroke-linecap: square"/>
     </g>
     <g id="line2d_53">
      <g>
       <use xlink:href="#m759550dcb1" x="500.456406" y="47.518515" style="fill: #33414d; stroke: #33414d; stroke-width: 0.8"/>
      </g>
     </g>
     <g id="text_20">
      <!-- 1.0 -->
      <g style="fill: #33414d" transform="translate(474.809531 52.858749) scale(0.15 -0.15)">
       <use xlink:href="#SourceSans3-Regular-31"/>
       <use xlink:href="#SourceSans3-Regular-2e" transform="translate(49.699997 0)"/>
       <use xlink:href="#SourceSans3-Regular-30" transform="translate(74.599991 0)"/>
      </g>
     </g>
    </g>
    <g id="text_21">
     <!-- AP at IoU ≥ 0.5 -->
     <g style="fill: #16212b" transform="translate(467.324531 200.845859) rotate(-90) scale(0.17 -0.17)">
      <use xlink:href="#SourceSans3-Regular-41"/>
      <use xlink:href="#SourceSans3-Regular-50" transform="translate(54.299988 0)"/>
      <use xlink:href="#SourceSans3-Regular-20" transform="translate(110.899979 0)"/>
      <use xlink:href="#SourceSans3-Regular-61" transform="translate(130.899963 0)"/>
      <use xlink:href="#SourceSans3-Regular-74" transform="translate(181.299957 0)"/>
      <use xlink:href="#SourceSans3-Regular-20" transform="translate(215.099945 0)"/>
      <use xlink:href="#SourceSans3-Regular-49" transform="translate(235.09993 0)"/>
      <use xlink:href="#SourceSans3-Regular-6f" transform="translate(261.399918 0)"/>
      <use xlink:href="#SourceSans3-Regular-55" transform="translate(315.599915 0)"/>
      <use xlink:href="#SourceSans3-Regular-20" transform="translate(380.099899 0)"/>
      <use xlink:href="#SourceSans3-Regular-2265" transform="translate(400.099884 0)"/>
      <use xlink:href="#SourceSans3-Regular-20" transform="translate(449.799881 0)"/>
      <use xlink:href="#SourceSans3-Regular-30" transform="translate(469.799866 0)"/>
      <use xlink:href="#SourceSans3-Regular-2e" transform="translate(519.499863 0)"/>
      <use xlink:href="#SourceSans3-Regular-35" transform="translate(544.399857 0)"/>
     </g>
    </g>
   </g>
   <g id="PathCollection_1">
    <defs>
     <path id="md7d412f7d6" d="M 0 3.807887 
C 1.009863 3.807887 1.978501 3.406664 2.692582 2.692582 
C 3.406664 1.978501 3.807887 1.009863 3.807887 0 
C 3.807887 -1.009863 3.406664 -1.978501 2.692582 -2.692582 
C 1.978501 -3.406664 1.009863 -3.807887 0 -3.807887 
C -1.009863 -3.807887 -1.978501 -3.406664 -2.692582 -2.692582 
C -3.406664 -1.978501 -3.807887 -1.009863 -3.807887 0 
C -3.807887 1.009863 -3.406664 1.978501 -2.692582 2.692582 
C -1.978501 3.406664 -1.009863 3.807887 0 3.807887 
z
" style="stroke: #ffffff; stroke-opacity: 0.55; stroke-width: 0.8"/>
    </defs>
    <g clip-path="url(#pd3b6080981)">
     <use xlink:href="#md7d412f7d6" x="623.554688" y="47.518515" style="fill: #0b3d62; fill-opacity: 0.55; stroke: #ffffff; stroke-opacity: 0.55; stroke-width: 0.8"/>
     <use xlink:href="#md7d412f7d6" x="558.681982" y="47.518515" style="fill: #0b3d62; fill-opacity: 0.55; stroke: #ffffff; stroke-opacity: 0.55; stroke-width: 0.8"/>
     <use xlink:href="#md7d412f7d6" x="582.624567" y="47.518515" style="fill: #0b3d62; fill-opacity: 0.55; stroke: #ffffff; stroke-opacity: 0.55; stroke-width: 0.8"/>
     <use xlink:href="#md7d412f7d6" x="582.624567" y="47.518515" style="fill: #0b3d62; fill-opacity: 0.55; stroke: #ffffff; stroke-opacity: 0.55; stroke-width: 0.8"/>
     <use xlink:href="#md7d412f7d6" x="582.624567" y="47.518515" style="fill: #0b3d62; fill-opacity: 0.55; stroke: #ffffff; stroke-opacity: 0.55; stroke-width: 0.8"/>
     <use xlink:href="#md7d412f7d6" x="517.751861" y="47.518515" style="fill: #0b3d62; fill-opacity: 0.55; stroke: #ffffff; stroke-opacity: 0.55; stroke-width: 0.8"/>
     <use xlink:href="#md7d412f7d6" x="558.681982" y="47.518515" style="fill: #0b3d62; fill-opacity: 0.55; stroke: #ffffff; stroke-opacity: 0.55; stroke-width: 0.8"/>
     <use xlink:href="#md7d412f7d6" x="599.612102" y="47.518515" style="fill: #0b3d62; fill-opacity: 0.55; stroke: #ffffff; stroke-opacity: 0.55; stroke-width: 0.8"/>
     <use xlink:href="#md7d412f7d6" x="582.624567" y="47.518515" style="fill: #0b3d62; fill-opacity: 0.55; stroke: #ffffff; stroke-opacity: 0.55; stroke-width: 0.8"/>
     <use xlink:href="#md7d412f7d6" x="517.751861" y="47.518515" style="fill: #0b3d62; fill-opacity: 0.55; stroke: #ffffff; stroke-opacity: 0.55; stroke-width: 0.8"/>
     <use xlink:href="#md7d412f7d6" x="599.612102" y="47.518515" style="fill: #0b3d62; fill-opacity: 0.55; stroke: #ffffff; stroke-opacity: 0.55; stroke-width: 0.8"/>
     <use xlink:href="#md7d412f7d6" x="599.612102" y="47.518515" style="fill: #0b3d62; fill-opacity: 0.55; stroke: #ffffff; stroke-opacity: 0.55; stroke-width: 0.8"/>
     <use xlink:href="#md7d412f7d6" x="582.624567" y="47.518515" style="fill: #0b3d62; fill-opacity: 0.55; stroke: #ffffff; stroke-opacity: 0.55; stroke-width: 0.8"/>
     <use xlink:href="#md7d412f7d6" x="632.657237" y="55.090536" style="fill: #0b3d62; fill-opacity: 0.55; stroke: #ffffff; stroke-opacity: 0.55; stroke-width: 0.8"/>
     <use xlink:href="#md7d412f7d6" x="647.497274" y="57.036656" style="fill: #0b3d62; fill-opacity: 0.55; stroke: #ffffff; stroke-opacity: 0.55; stroke-width: 0.8"/>
     <use xlink:href="#md7d412f7d6" x="623.554688" y="57.614543" style="fill: #0b3d62; fill-opacity: 0.55; stroke: #ffffff; stroke-opacity: 0.55; stroke-width: 0.8"/>
     <use xlink:href="#md7d412f7d6" x="599.612102" y="58.119345" style="fill: #0b3d62; fill-opacity: 0.55; stroke: #ffffff; stroke-opacity: 0.55; stroke-width: 0.8"/>
     <use xlink:href="#md7d412f7d6" x="612.788658" y="59.633749" style="fill: #0b3d62; fill-opacity: 0.55; stroke: #ffffff; stroke-opacity: 0.55; stroke-width: 0.8"/>
     <use xlink:href="#md7d412f7d6" x="582.624567" y="65.186564" style="fill: #0b3d62; fill-opacity: 0.55; stroke: #ffffff; stroke-opacity: 0.55; stroke-width: 0.8"/>
     <use xlink:href="#md7d412f7d6" x="647.497274" y="71.973339" style="fill: #0b3d62; fill-opacity: 0.55; stroke: #ffffff; stroke-opacity: 0.55; stroke-width: 0.8"/>
     <use xlink:href="#md7d412f7d6" x="664.484809" y="78.834" style="fill: #0b3d62; fill-opacity: 0.55; stroke: #ffffff; stroke-opacity: 0.55; stroke-width: 0.8"/>
     <use xlink:href="#md7d412f7d6" x="599.612102" y="79.321004" style="fill: #0b3d62; fill-opacity: 0.55; stroke: #ffffff; stroke-opacity: 0.55; stroke-width: 0.8"/>
     <use xlink:href="#md7d412f7d6" x="632.657237" y="80.330607" style="fill: #0b3d62; fill-opacity: 0.55; stroke: #ffffff; stroke-opacity: 0.55; stroke-width: 0.8"/>
     <use xlink:href="#md7d412f7d6" x="612.788658" y="80.498874" style="fill: #0b3d62; fill-opacity: 0.55; stroke: #ffffff; stroke-opacity: 0.55; stroke-width: 0.8"/>
     <use xlink:href="#md7d412f7d6" x="632.657237" y="82.133469" style="fill: #0b3d62; fill-opacity: 0.55; stroke: #ffffff; stroke-opacity: 0.55; stroke-width: 0.8"/>
     <use xlink:href="#md7d412f7d6" x="612.788658" y="89.921834" style="fill: #0b3d62; fill-opacity: 0.55; stroke: #ffffff; stroke-opacity: 0.55; stroke-width: 0.8"/>
     <use xlink:href="#md7d412f7d6" x="612.788658" y="89.921834" style="fill: #0b3d62; fill-opacity: 0.55; stroke: #ffffff; stroke-opacity: 0.55; stroke-width: 0.8"/>
     <use xlink:href="#md7d412f7d6" x="653.718779" y="90.885545" style="fill: #0b3d62; fill-opacity: 0.55; stroke: #ffffff; stroke-opacity: 0.55; stroke-width: 0.8"/>
     <use xlink:href="#md7d412f7d6" x="623.554688" y="98.559547" style="fill: #0b3d62; fill-opacity: 0.55; stroke: #ffffff; stroke-opacity: 0.55; stroke-width: 0.8"/>
     <use xlink:href="#md7d412f7d6" x="863.660952" y="100.361493" style="fill: #0b3d62; fill-opacity: 0.55; stroke: #ffffff; stroke-opacity: 0.55; stroke-width: 0.8"/>
     <use xlink:href="#md7d412f7d6" x="599.612102" y="100.522663" style="fill: #0b3d62; fill-opacity: 0.55; stroke: #ffffff; stroke-opacity: 0.55; stroke-width: 0.8"/>
     <use xlink:href="#md7d412f7d6" x="647.497274" y="101.700533" style="fill: #0b3d62; fill-opacity: 0.55; stroke: #ffffff; stroke-opacity: 0.55; stroke-width: 0.8"/>
     <use xlink:href="#md7d412f7d6" x="685.052208" y="107.748871" style="fill: #0b3d62; fill-opacity: 0.55; stroke: #ffffff; stroke-opacity: 0.55; stroke-width: 0.8"/>
     <use xlink:href="#md7d412f7d6" x="623.554688" y="107.797742" style="fill: #0b3d62; fill-opacity: 0.55; stroke: #ffffff; stroke-opacity: 0.55; stroke-width: 0.8"/>
     <use xlink:href="#md7d412f7d6" x="669.211305" y="111.659143" style="fill: #0b3d62; fill-opacity: 0.55; stroke: #ffffff; stroke-opacity: 0.55; stroke-width: 0.8"/>
     <use xlink:href="#md7d412f7d6" x="599.612102" y="113.7737" style="fill: #0b3d62; fill-opacity: 0.55; stroke: #ffffff; stroke-opacity: 0.55; stroke-width: 0.8"/>
     <use xlink:href="#md7d412f7d6" x="694.648899" y="116.798797" style="fill: #0b3d62; fill-opacity: 0.55; stroke: #ffffff; stroke-opacity: 0.55; stroke-width: 0.8"/>
     <use xlink:href="#md7d412f7d6" x="632.657237" y="117.83014" style="fill: #0b3d62; fill-opacity: 0.55; stroke: #ffffff; stroke-opacity: 0.55; stroke-width: 0.8"/>
     <use xlink:href="#md7d412f7d6" x="623.554688" y="118.190713" style="fill: #0b3d62; fill-opacity: 0.55; stroke: #ffffff; stroke-opacity: 0.55; stroke-width: 0.8"/>
     <use xlink:href="#md7d412f7d6" x="582.624567" y="118.190713" style="fill: #0b3d62; fill-opacity: 0.55; stroke: #ffffff; stroke-opacity: 0.55; stroke-width: 0.8"/>
     <use xlink:href="#md7d412f7d6" x="582.624567" y="118.190713" style="fill: #0b3d62; fill-opacity: 0.55; stroke: #ffffff; stroke-opacity: 0.55; stroke-width: 0.8"/>
     <use xlink:href="#md7d412f7d6" x="582.624567" y="118.190713" style="fill: #0b3d62; fill-opacity: 0.55; stroke: #ffffff; stroke-opacity: 0.55; stroke-width: 0.8"/>
     <use xlink:href="#md7d412f7d6" x="582.624567" y="118.190713" style="fill: #0b3d62; fill-opacity: 0.55; stroke: #ffffff; stroke-opacity: 0.55; stroke-width: 0.8"/>
     <use xlink:href="#md7d412f7d6" x="558.681982" y="118.190713" style="fill: #0b3d62; fill-opacity: 0.55; stroke: #ffffff; stroke-opacity: 0.55; stroke-width: 0.8"/>
     <use xlink:href="#md7d412f7d6" x="705.414929" y="120.943455" style="fill: #0b3d62; fill-opacity: 0.55; stroke: #ffffff; stroke-opacity: 0.55; stroke-width: 0.8"/>
     <use xlink:href="#md7d412f7d6" x="653.718779" y="123.877359" style="fill: #0b3d62; fill-opacity: 0.55; stroke: #ffffff; stroke-opacity: 0.55; stroke-width: 0.8"/>
     <use xlink:href="#md7d412f7d6" x="647.497274" y="124.19554" style="fill: #0b3d62; fill-opacity: 0.55; stroke: #ffffff; stroke-opacity: 0.55; stroke-width: 0.8"/>
     <use xlink:href="#md7d412f7d6" x="688.427394" y="127.059267" style="fill: #0b3d62; fill-opacity: 0.55; stroke: #ffffff; stroke-opacity: 0.55; stroke-width: 0.8"/>
     <use xlink:href="#md7d412f7d6" x="705.414929" y="128.839414" style="fill: #0b3d62; fill-opacity: 0.55; stroke: #ffffff; stroke-opacity: 0.55; stroke-width: 0.8"/>
     <use xlink:href="#md7d412f7d6" x="718.591485" y="136.845192" style="fill: #0b3d62; fill-opacity: 0.55; stroke: #ffffff; stroke-opacity: 0.55; stroke-width: 0.8"/>
     <use xlink:href="#md7d412f7d6" x="612.788658" y="142.017339" style="fill: #0b3d62; fill-opacity: 0.55; stroke: #ffffff; stroke-opacity: 0.55; stroke-width: 0.8"/>
     <use xlink:href="#md7d412f7d6" x="558.681982" y="153.526811" style="fill: #0b3d62; fill-opacity: 0.55; stroke: #ffffff; stroke-opacity: 0.55; stroke-width: 0.8"/>
     <use xlink:href="#md7d412f7d6" x="517.751861" y="153.526811" style="fill: #0b3d62; fill-opacity: 0.55; stroke: #ffffff; stroke-opacity: 0.55; stroke-width: 0.8"/>
     <use xlink:href="#md7d412f7d6" x="558.681982" y="153.526811" style="fill: #0b3d62; fill-opacity: 0.55; stroke: #ffffff; stroke-opacity: 0.55; stroke-width: 0.8"/>
     <use xlink:href="#md7d412f7d6" x="677.661364" y="155.42724" style="fill: #0b3d62; fill-opacity: 0.55; stroke: #ffffff; stroke-opacity: 0.55; stroke-width: 0.8"/>
     <use xlink:href="#md7d412f7d6" x="632.657237" y="169.391999" style="fill: #0b3d62; fill-opacity: 0.55; stroke: #ffffff; stroke-opacity: 0.55; stroke-width: 0.8"/>
     <use xlink:href="#md7d412f7d6" x="691.620047" y="170.556796" style="fill: #0b3d62; fill-opacity: 0.55; stroke: #ffffff; stroke-opacity: 0.55; stroke-width: 0.8"/>
     <use xlink:href="#md7d412f7d6" x="673.587357" y="171.845789" style="fill: #0b3d62; fill-opacity: 0.55; stroke: #ffffff; stroke-opacity: 0.55; stroke-width: 0.8"/>
     <use xlink:href="#md7d412f7d6" x="647.497274" y="177.7744" style="fill: #0b3d62; fill-opacity: 0.55; stroke: #ffffff; stroke-opacity: 0.55; stroke-width: 0.8"/>
     <use xlink:href="#md7d412f7d6" x="694.648899" y="178.881614" style="fill: #0b3d62; fill-opacity: 0.55; stroke: #ffffff; stroke-opacity: 0.55; stroke-width: 0.8"/>
     <use xlink:href="#md7d412f7d6" x="714.517478" y="188.458771" style="fill: #0b3d62; fill-opacity: 0.55; stroke: #ffffff; stroke-opacity: 0.55; stroke-width: 0.8"/>
     <use xlink:href="#md7d412f7d6" x="685.052208" y="198.885121" style="fill: #0b3d62; fill-opacity: 0.55; stroke: #ffffff; stroke-opacity: 0.55; stroke-width: 0.8"/>
     <use xlink:href="#md7d412f7d6" x="632.657237" y="198.958938" style="fill: #0b3d62; fill-opacity: 0.55; stroke: #ffffff; stroke-opacity: 0.55; stroke-width: 0.8"/>
     <use xlink:href="#md7d412f7d6" x="582.624567" y="206.362692" style="fill: #0b3d62; fill-opacity: 0.55; stroke: #ffffff; stroke-opacity: 0.55; stroke-width: 0.8"/>
     <use xlink:href="#md7d412f7d6" x="517.751861" y="206.53096" style="fill: #0b3d62; fill-opacity: 0.55; stroke: #ffffff; stroke-opacity: 0.55; stroke-width: 0.8"/>
     <use xlink:href="#md7d412f7d6" x="623.554688" y="209.692611" style="fill: #0b3d62; fill-opacity: 0.55; stroke: #ffffff; stroke-opacity: 0.55; stroke-width: 0.8"/>
     <use xlink:href="#md7d412f7d6" x="558.681982" y="217.888991" style="fill: #0b3d62; fill-opacity: 0.55; stroke: #ffffff; stroke-opacity: 0.55; stroke-width: 0.8"/>
     <use xlink:href="#md7d412f7d6" x="632.657237" y="224.70381" style="fill: #0b3d62; fill-opacity: 0.55; stroke: #ffffff; stroke-opacity: 0.55; stroke-width: 0.8"/>
     <use xlink:href="#md7d412f7d6" x="677.661364" y="232.065749" style="fill: #0b3d62; fill-opacity: 0.55; stroke: #ffffff; stroke-opacity: 0.55; stroke-width: 0.8"/>
     <use xlink:href="#md7d412f7d6" x="623.554688" y="232.296865" style="fill: #0b3d62; fill-opacity: 0.55; stroke: #ffffff; stroke-opacity: 0.55; stroke-width: 0.8"/>
     <use xlink:href="#md7d412f7d6" x="558.681982" y="233.033034" style="fill: #0b3d62; fill-opacity: 0.55; stroke: #ffffff; stroke-opacity: 0.55; stroke-width: 0.8"/>
     <use xlink:href="#md7d412f7d6" x="517.751861" y="243.226139" style="fill: #0b3d62; fill-opacity: 0.55; stroke: #ffffff; stroke-opacity: 0.55; stroke-width: 0.8"/>
     <use xlink:href="#md7d412f7d6" x="517.751861" y="259.535108" style="fill: #0b3d62; fill-opacity: 0.55; stroke: #ffffff; stroke-opacity: 0.55; stroke-width: 0.8"/>
    </g>
   </g>
   <g id="line2d_54">
    <path d="M 500.456406 119.726221 
L 880.956406 119.726221 
" clip-path="url(#pd3b6080981)" style="fill: none; stroke-dasharray: 7.4,3.2; stroke-dashoffset: 0; stroke: #6c3483; stroke-width: 2"/>
   </g>
   <g id="patch_79">
    <path d="M 500.456406 270.135937 
L 500.456406 30.557187 
" style="fill: none; stroke: #7b8794; stroke-width: 1.2; stroke-linejoin: miter; stroke-linecap: square"/>
   </g>
   <g id="patch_80">
    <path d="M 500.456406 270.135937 
L 880.956406 270.135937 
" style="fill: none; stroke: #7b8794; stroke-width: 1.2; stroke-linejoin: miter; stroke-linecap: square"/>
   </g>
   <g id="patch_81">
    <path d="M 704.89917 188.996657 
Q 783.406745 145.166639 859.961916 102.426629 
" style="fill: none; stroke: #0b3d62; stroke-width: 2; stroke-linecap: round"/>
    <path d="M 853.260666 102.732003 
L 859.961916 102.426629 
L 856.185466 107.970853 
" style="fill: none; stroke: #0b3d62; stroke-width: 2; stroke-linecap: round"/>
   </g>
   <g id="text_22">
    <g id="patch_82">
     <path d="M 582.624567 219.226126 
L 770.387067 219.226126 
Q 777.887067 219.226126 777.887067 211.726126 
L 777.887067 197.970657 
Q 777.887067 190.470657 770.387067 190.470657 
L 582.624567 190.470657 
Q 575.124567 190.470657 575.124567 197.970657 
L 575.124567 211.726126 
Q 575.124567 219.226126 582.624567 219.226126 
z
" style="fill: #ffffff; stroke: #0b3d62; stroke-linejoin: miter"/>
    </g>
    <!-- person: 350 instances, AP 0.75 -->
    <g style="fill: #0b3d62" transform="translate(582.624567 208.651126) scale(0.15 -0.15)">
     <defs>
      <path id="SourceSans3-Regular-3a" d="M 800 2233 
Q 646 2233 531 2345 
Q 416 2457 416 2630 
Q 416 2816 531 2928 
Q 646 3040 800 3040 
Q 960 3040 1069 2928 
Q 1178 2816 1178 2630 
Q 1178 2457 1069 2345 
Q 960 2233 800 2233 
z
M 800 -77 
Q 646 -77 531 35 
Q 416 147 416 320 
Q 416 506 531 618 
Q 646 730 800 730 
Q 960 730 1069 618 
Q 1178 506 1178 320 
Q 1178 147 1069 35 
Q 960 -77 800 -77 
z
" transform="scale(0.015625)"/>
     </defs>
     <use xlink:href="#SourceSans3-Regular-70"/>
     <use xlink:href="#SourceSans3-Regular-65" transform="translate(55.499985 0)"/>
     <use xlink:href="#SourceSans3-Regular-72" transform="translate(105.099976 0)"/>
     <use xlink:href="#SourceSans3-Regular-73" transform="translate(139.799973 0)"/>
     <use xlink:href="#SourceSans3-Regular-6f" transform="translate(181.699966 0)"/>
     <use xlink:href="#SourceSans3-Regular-6e" transform="translate(235.899963 0)"/>
     <use xlink:href="#SourceSans3-Regular-3a" transform="translate(290.59996 0)"/>
     <use xlink:href="#SourceSans3-Regular-20" transform="translate(315.499954 0)"/>
     <use xlink:href="#SourceSans3-Regular-33" transform="translate(335.499939 0)"/>
     <use xlink:href="#SourceSans3-Regular-35" transform="translate(385.199936 0)"/>
     <use xlink:href="#SourceSans3-Regular-30" transform="translate(434.899933 0)"/>
     <use xlink:href="#SourceSans3-Regular-20" transform="translate(484.59993 0)"/>
     <use xlink:href="#SourceSans3-Regular-69" transform="translate(504.599915 0)"/>
     <use xlink:href="#SourceSans3-Regular-6e" transform="translate(529.199905 0)"/>
     <use xlink:href="#SourceSans3-Regular-73" transform="translate(583.899902 0)"/>
     <use xlink:href="#SourceSans3-Regular-74" transform="translate(625.799896 0)"/>
     <use xlink:href="#SourceSans3-Regular-61" transform="translate(659.599884 0)"/>
     <use xlink:href="#SourceSans3-Regular-6e" transform="translate(709.999878 0)"/>
     <use xlink:href="#SourceSans3-Regular-63" transform="translate(764.699875 0)"/>
     <use xlink:href="#SourceSans3-Regular-65" transform="translate(810.299866 0)"/>
     <use xlink:href="#SourceSans3-Regular-73" transform="translate(859.899857 0)"/>
     <use xlink:href="#SourceSans3-Regular-2c" transform="translate(901.79985 0)"/>
     <use xlink:href="#SourceSans3-Regular-20" transform="translate(926.699844 0)"/>
     <use xlink:href="#SourceSans3-Regular-41" transform="translate(946.699829 0)"/>
     <use xlink:href="#SourceSans3-Regular-50" transform="translate(1000.999817 0)"/>
     <use xlink:href="#SourceSans3-Regular-20" transform="translate(1057.599808 0)"/>
     <use xlink:href="#SourceSans3-Regular-30" transform="translate(1077.599792 0)"/>
     <use xlink:href="#SourceSans3-Regular-2e" transform="translate(1127.299789 0)"/>
     <use xlink:href="#SourceSans3-Regular-37" transform="translate(1152.199783 0)"/>
     <use xlink:href="#SourceSans3-Regular-35" transform="translate(1201.89978 0)"/>
    </g>
   </g>
   <g id="text_23">
    <!-- a perfect score is usually a class with one instance -->
    <g style="fill: #4b5563" transform="translate(500.456406 24.557187) scale(0.19 -0.19)">
     <use xlink:href="#SourceSans3-Regular-61"/>
     <use xlink:href="#SourceSans3-Regular-20" transform="translate(50.399994 0)"/>
     <use xlink:href="#SourceSans3-Regular-70" transform="translate(70.399979 0)"/>
     <use xlink:href="#SourceSans3-Regular-65" transform="translate(125.899963 0)"/>
     <use xlink:href="#SourceSans3-Regular-72" transform="translate(175.499954 0)"/>
     <use xlink:href="#SourceSans3-Regular-66" transform="translate(210.199951 0)"/>
     <use xlink:href="#SourceSans3-Regular-65" transform="translate(239.399948 0)"/>
     <use xlink:href="#SourceSans3-Regular-63" transform="translate(288.999939 0)"/>
     <use xlink:href="#SourceSans3-Regular-74" transform="translate(334.59993 0)"/>
     <use xlink:href="#SourceSans3-Regular-20" transform="translate(368.399918 0)"/>
     <use xlink:href="#SourceSans3-Regular-73" transform="translate(388.399902 0)"/>
     <use xlink:href="#SourceSans3-Regular-63" transform="translate(430.299896 0)"/>
     <use xlink:href="#SourceSans3-Regular-6f" transform="translate(475.899887 0)"/>
     <use xlink:href="#SourceSans3-Regular-72" transform="translate(530.099884 0)"/>
     <use xlink:href="#SourceSans3-Regular-65" transform="translate(564.799881 0)"/>
     <use xlink:href="#SourceSans3-Regular-20" transform="translate(614.399872 0)"/>
     <use xlink:href="#SourceSans3-Regular-69" transform="translate(634.399857 0)"/>
     <use xlink:href="#SourceSans3-Regular-73" transform="translate(658.999847 0)"/>
     <use xlink:href="#SourceSans3-Regular-20" transform="translate(700.899841 0)"/>
     <use xlink:href="#SourceSans3-Regular-75" transform="translate(720.899826 0)"/>
     <use xlink:href="#SourceSans3-Regular-73" transform="translate(775.29982 0)"/>
     <use xlink:href="#SourceSans3-Regular-75" transform="translate(817.199814 0)"/>
     <use xlink:href="#SourceSans3-Regular-61" transform="translate(871.599808 0)"/>
     <use xlink:href="#SourceSans3-Regular-6c" transform="translate(921.999802 0)"/>
     <use xlink:href="#SourceSans3-Regular-6c" transform="translate(947.499786 0)"/>
     <use xlink:href="#SourceSans3-Regular-79" transform="translate(972.999771 0)"/>
     <use xlink:href="#SourceSans3-Regular-20" transform="translate(1019.699768 0)"/>
     <use xlink:href="#SourceSans3-Regular-61" transform="translate(1039.699753 0)"/>
     <use xlink:href="#SourceSans3-Regular-20" transform="translate(1090.099747 0)"/>
     <use xlink:href="#SourceSans3-Regular-63" transform="translate(1110.099731 0)"/>
     <use xlink:href="#SourceSans3-Regular-6c" transform="translate(1155.699722 0)"/>
     <use xlink:href="#SourceSans3-Regular-61" transform="translate(1181.199707 0)"/>
     <use xlink:href="#SourceSans3-Regular-73" transform="translate(1231.599701 0)"/>
     <use xlink:href="#SourceSans3-Regular-73" transform="translate(1273.499695 0)"/>
     <use xlink:href="#SourceSans3-Regular-20" transform="translate(1315.399689 0)"/>
     <use xlink:href="#SourceSans3-Regular-77" transform="translate(1335.399673 0)"/>
     <use xlink:href="#SourceSans3-Regular-69" transform="translate(1407.299667 0)"/>
     <use xlink:href="#SourceSans3-Regular-74" transform="translate(1431.899658 0)"/>
     <use xlink:href="#SourceSans3-Regular-68" transform="translate(1465.699646 0)"/>
     <use xlink:href="#SourceSans3-Regular-20" transform="translate(1520.09964 0)"/>
     <use xlink:href="#SourceSans3-Regular-6f" transform="translate(1540.099625 0)"/>
     <use xlink:href="#SourceSans3-Regular-6e" transform="translate(1594.299622 0)"/>
     <use xlink:href="#SourceSans3-Regular-65" transform="translate(1648.999619 0)"/>
     <use xlink:href="#SourceSans3-Regular-20" transform="translate(1698.599609 0)"/>
     <use xlink:href="#SourceSans3-Regular-69" transform="translate(1718.599594 0)"/>
     <use xlink:href="#SourceSans3-Regular-6e" transform="translate(1743.199585 0)"/>
     <use xlink:href="#SourceSans3-Regular-73" transform="translate(1797.899582 0)"/>
     <use xlink:href="#SourceSans3-Regular-74" transform="translate(1839.799576 0)"/>
     <use xlink:href="#SourceSans3-Regular-61" transform="translate(1873.599564 0)"/>
     <use xlink:href="#SourceSans3-Regular-6e" transform="translate(1923.999557 0)"/>
     <use xlink:href="#SourceSans3-Regular-63" transform="translate(1978.699554 0)"/>
     <use xlink:href="#SourceSans3-Regular-65" transform="translate(2024.299545 0)"/>
    </g>
   </g>
  </g>
 </g>
 <defs>
  <clipPath id="pd9e2ace9ff">
   <rect x="56.036406" y="30.557187" width="380.5" height="239.57875"/>
  </clipPath>
  <clipPath id="pd3b6080981">
   <rect x="500.456406" y="30.557187" width="380.5" height="239.57875"/>
  </clipPath>
 </defs>
</svg>
